<svg viewBox="0 0 300.0001 107.609" width="5000px" height="1793.4828053336164px" xmlns="http://www.w3.org/2000/svg" xmlns:xlink="http://www.w3.org/1999/xlink" preserveAspectRatio="none"><defs></defs><style>.a6izo4zJpcolorOvB5CUJ9q {fill:#3B3B3B;fill-opacity:1;}.aD6z1nYkhcolorOvB5CUJ9q {fill:#3B3B3B;fill-opacity:1;}</style><g opacity="1" transform="rotate(0 76.8886 92.69199999999998)">
        <svg width="146.2228" height="14.917" x="76.8886" y="92.69199999999998" version="1.1" preserveAspectRatio="none" viewBox="0.24 -29.46 360.21999999999997 36.74">
          <g transform="matrix(1 0 0 1 0 0)" class="a6izo4zJpcolorOvB5CUJ9q"><path transform="" stroke="none" d="M19.62-25.80L18.52-24.22Q18.30-23.94 18.10-23.79Q17.90-23.64 17.62-23.64L17.62-23.64Q17.28-23.64 16.90-23.99Q16.52-24.34 15.93-24.75Q15.34-25.16 14.50-25.51Q13.66-25.86 12.40-25.86L12.40-25.86Q11.12-25.86 10.12-25.46Q9.12-25.06 8.43-24.37Q7.74-23.68 7.38-22.76Q7.02-21.84 7.02-20.78L7.02-20.78Q7.02-19.74 7.50-19.03Q7.98-18.32 8.76-17.81Q9.54-17.30 10.55-16.91Q11.56-16.52 12.60-16.11Q13.64-15.70 14.65-15.20Q15.66-14.70 16.44-13.96Q17.22-13.22 17.70-12.18Q18.18-11.14 18.18-9.66L18.18-9.66Q18.18-7.62 17.48-5.81Q16.78-4 15.47-2.64Q14.16-1.28 12.30-0.48Q10.44 0.32 8.12 0.32L8.12 0.32Q5.56 0.32 3.55-0.69Q1.54-1.70 0.24-3.42L0.24-3.42L1.56-5.20Q1.72-5.42 1.96-5.56Q2.20-5.70 2.48-5.70L2.48-5.70Q2.86-5.70 3.30-5.25Q3.74-4.80 4.42-4.25Q5.10-3.70 6.10-3.25Q7.10-2.80 8.60-2.80L8.60-2.80Q9.98-2.80 11.09-3.24Q12.20-3.68 12.97-4.46Q13.74-5.24 14.16-6.33Q14.58-7.42 14.58-8.74L14.58-8.74Q14.58-9.84 14.10-10.57Q13.62-11.30 12.84-11.80Q12.06-12.30 11.07-12.67Q10.08-13.04 9.03-13.42Q7.98-13.80 6.99-14.28Q6-14.76 5.22-15.50Q4.44-16.24 3.96-17.32Q3.48-18.40 3.48-19.98L3.48-19.98Q3.48-21.74 4.12-23.36Q4.76-24.98 5.96-26.22Q7.16-27.46 8.88-28.20Q10.60-28.94 12.76-28.94L12.76-28.94Q14.96-28.94 16.72-28.10Q18.48-27.26 19.62-25.80L19.62-25.80Z"></path>
    <path transform="" stroke="none" d="M38.76-15.92L38.76-15.92Q38.76-14.60 38.22-13.49Q37.68-12.38 36.24-11.49Q34.80-10.60 32.28-9.94Q29.76-9.28 25.80-8.88L25.80-8.88Q25.78-8.66 25.78-8.45Q25.78-8.24 25.78-8.02L25.78-8.02Q25.78-5.34 26.95-3.93Q28.12-2.52 30.48-2.52L30.48-2.52Q31.44-2.52 32.19-2.72Q32.94-2.92 33.53-3.21Q34.12-3.50 34.57-3.85Q35.02-4.20 35.40-4.49Q35.78-4.78 36.10-4.98Q36.42-5.18 36.74-5.18L36.74-5.18Q37.10-5.18 37.40-4.84L37.40-4.84L38.28-3.74Q37.26-2.68 36.29-1.93Q35.32-1.18 34.30-0.68Q33.28-0.18 32.17 0.05Q31.06 0.28 29.78 0.28L29.78 0.28Q28.04 0.28 26.66-0.30Q25.28-0.88 24.32-1.95Q23.36-3.02 22.84-4.54Q22.32-6.06 22.32-7.94L22.32-7.94Q22.32-9.50 22.65-11.05Q22.98-12.60 23.61-14Q24.24-15.40 25.15-16.60Q26.06-17.80 27.23-18.67Q28.40-19.54 29.81-20.04Q31.22-20.54 32.84-20.54L32.84-20.54Q34.38-20.54 35.50-20.10Q36.62-19.66 37.34-18.98Q38.06-18.30 38.41-17.48Q38.76-16.66 38.76-15.92ZM32.64-17.98L32.64-17.98Q31.38-17.98 30.32-17.46Q29.26-16.94 28.44-16.03Q27.62-15.12 27.04-13.89Q26.46-12.66 26.14-11.24L26.14-11.24Q29.22-11.62 31.08-12.11Q32.94-12.60 33.94-13.17Q34.94-13.74 35.26-14.40Q35.58-15.06 35.58-15.78L35.58-15.78Q35.58-16.14 35.42-16.53Q35.26-16.92 34.91-17.24Q34.56-17.56 34-17.77Q33.44-17.98 32.64-17.98Z"></path>
    <path transform="" stroke="none" d="M57.56-3.64L57.56-3.64Q56.52-2.50 55.59-1.74Q54.66-0.98 53.72-0.53Q52.78-0.08 51.77 0.10Q50.76 0.28 49.60 0.28L49.60 0.28Q47.84 0.28 46.49-0.32Q45.14-0.92 44.23-2.01Q43.32-3.10 42.85-4.63Q42.38-6.16 42.38-8L42.38-8Q42.38-10.46 43.15-12.72Q43.92-14.98 45.30-16.72Q46.68-18.46 48.58-19.50Q50.48-20.54 52.76-20.54L52.76-20.54Q54.76-20.54 56.12-19.83Q57.48-19.12 58.50-17.76L58.50-17.76L57.38-16.42Q57.26-16.26 57.08-16.16Q56.90-16.06 56.68-16.06L56.68-16.06Q56.40-16.06 56.13-16.31Q55.86-16.56 55.43-16.87Q55-17.18 54.35-17.43Q53.70-17.68 52.68-17.68L52.68-17.68Q51.30-17.68 50.07-16.93Q48.84-16.18 47.92-14.88Q47-13.58 46.47-11.80Q45.94-10.02 45.94-7.98L45.94-7.98Q45.94-6.74 46.22-5.73Q46.50-4.72 47.06-4.01Q47.62-3.30 48.43-2.91Q49.24-2.52 50.32-2.52L50.32-2.52Q51.22-2.52 51.92-2.71Q52.62-2.90 53.16-3.18Q53.70-3.46 54.11-3.79Q54.52-4.12 54.85-4.40Q55.18-4.68 55.45-4.87Q55.72-5.06 56-5.06L56-5.06Q56.40-5.06 56.68-4.72L56.68-4.72L57.56-3.64Z"></path>
    <path transform="" stroke="none" d="M65 0L61.52 0L63.96-20.28L65.74-20.28Q66.30-20.28 66.62-20.02Q66.94-19.76 66.94-19.22L66.94-19.22Q66.94-19.14 66.93-18.99Q66.92-18.84 66.91-18.68Q66.90-18.52 66.89-18.40Q66.88-18.28 66.88-18.26L66.88-18.26L66.60-14.58Q67.90-17.38 69.51-18.90Q71.12-20.42 72.90-20.42L72.90-20.42Q73.74-20.42 74.58-20.06L74.58-20.06L73.94-16.64Q73-17.02 72.12-17.02L72.12-17.02Q70.18-17.02 68.66-15.13Q67.14-13.24 66.12-9.40L66.12-9.40L65 0Z"></path>
    <path transform="" stroke="none" d="M92.56-15.92L92.56-15.92Q92.56-14.60 92.02-13.49Q91.48-12.38 90.04-11.49Q88.60-10.60 86.08-9.94Q83.56-9.28 79.60-8.88L79.60-8.88Q79.58-8.66 79.58-8.45Q79.58-8.24 79.58-8.02L79.58-8.02Q79.58-5.34 80.75-3.93Q81.92-2.52 84.28-2.52L84.28-2.52Q85.24-2.52 85.99-2.72Q86.74-2.92 87.33-3.21Q87.92-3.50 88.37-3.85Q88.82-4.20 89.20-4.49Q89.58-4.78 89.90-4.98Q90.22-5.18 90.54-5.18L90.54-5.18Q90.90-5.18 91.20-4.84L91.20-4.84L92.08-3.74Q91.06-2.68 90.09-1.93Q89.12-1.18 88.10-0.68Q87.08-0.18 85.97 0.05Q84.86 0.28 83.58 0.28L83.58 0.28Q81.84 0.28 80.46-0.30Q79.08-0.88 78.12-1.95Q77.16-3.02 76.64-4.54Q76.12-6.06 76.12-7.94L76.12-7.94Q76.12-9.50 76.45-11.05Q76.78-12.60 77.41-14Q78.04-15.40 78.95-16.60Q79.86-17.80 81.03-18.67Q82.20-19.54 83.61-20.04Q85.02-20.54 86.64-20.54L86.64-20.54Q88.18-20.54 89.30-20.10Q90.42-19.66 91.14-18.98Q91.86-18.30 92.21-17.48Q92.56-16.66 92.56-15.92ZM86.44-17.98L86.44-17.98Q85.18-17.98 84.12-17.46Q83.06-16.94 82.24-16.03Q81.42-15.12 80.84-13.89Q80.26-12.66 79.94-11.24L79.94-11.24Q83.02-11.62 84.88-12.11Q86.74-12.60 87.74-13.17Q88.74-13.74 89.06-14.40Q89.38-15.06 89.38-15.78L89.38-15.78Q89.38-16.14 89.22-16.53Q89.06-16.92 88.71-17.24Q88.36-17.56 87.80-17.77Q87.24-17.98 86.44-17.98Z"></path>
    <path transform="" stroke="none" d="M98.16-3.82L98.16-3.82Q98.16-3.94 98.17-4.13Q98.18-4.32 98.21-4.68Q98.24-5.04 98.30-5.62Q98.36-6.20 98.48-7.14L98.48-7.14L99.74-17.28L97.48-17.28Q97.22-17.28 97.05-17.43Q96.88-17.58 96.88-17.90L96.88-17.90Q96.88-17.96 96.90-18.14Q96.92-18.32 96.95-18.55Q96.98-18.78 97.01-19.02Q97.04-19.26 97.06-19.48L97.06-19.48L100.18-19.90L101.68-26.16Q101.76-26.46 101.98-26.65Q102.20-26.84 102.52-26.84L102.52-26.84L104.40-26.84L103.52-19.86L108.84-19.86L108.54-17.28L103.20-17.28L101.98-7.32Q101.88-6.50 101.83-6Q101.78-5.50 101.75-5.20Q101.72-4.90 101.71-4.78Q101.70-4.66 101.70-4.60L101.70-4.60Q101.70-3.58 102.17-3.09Q102.64-2.60 103.46-2.60L103.46-2.60Q103.98-2.60 104.38-2.75Q104.78-2.90 105.07-3.08Q105.36-3.26 105.56-3.41Q105.76-3.56 105.92-3.56L105.92-3.56Q106.08-3.56 106.17-3.48Q106.26-3.40 106.36-3.22L106.36-3.22L107.10-1.52Q106.14-0.66 104.89-0.17Q103.64 0.32 102.38 0.32L102.38 0.32Q100.44 0.32 99.32-0.74Q98.20-1.80 98.16-3.82Z"></path>
    <path transform="" stroke="none" d="M125.64-18.30L124.74-17.02Q124.58-16.78 124.42-16.67Q124.26-16.56 124.02-16.56L124.02-16.56Q123.74-16.56 123.41-16.78Q123.08-17 122.61-17.27Q122.14-17.54 121.46-17.77Q120.78-18 119.82-18L119.82-18Q118.92-18 118.18-17.75Q117.44-17.50 116.90-17.06Q116.36-16.62 116.07-16.03Q115.78-15.44 115.78-14.78L115.78-14.78Q115.78-13.84 116.40-13.28Q117.02-12.72 117.96-12.31Q118.90-11.90 119.99-11.52Q121.08-11.14 122.02-10.56Q122.96-9.98 123.58-9.08Q124.20-8.18 124.20-6.74L124.20-6.74Q124.20-5.34 123.65-4.06Q123.10-2.78 122.07-1.81Q121.04-0.84 119.59-0.26Q118.14 0.32 116.34 0.32L116.34 0.32Q114.40 0.32 112.91-0.37Q111.42-1.06 110.48-2.14L110.48-2.14L111.36-3.50Q111.52-3.76 111.74-3.90Q111.96-4.04 112.30-4.04L112.30-4.04Q112.62-4.04 112.94-3.76Q113.26-3.48 113.74-3.13Q114.22-2.78 114.95-2.50Q115.68-2.22 116.80-2.22L116.80-2.22Q117.78-2.22 118.57-2.52Q119.36-2.82 119.91-3.32Q120.46-3.82 120.75-4.49Q121.04-5.16 121.04-5.92L121.04-5.92Q121.04-6.94 120.42-7.54Q119.80-8.14 118.86-8.54Q117.92-8.94 116.84-9.29Q115.76-9.64 114.82-10.19Q113.88-10.74 113.26-11.62Q112.64-12.50 112.64-13.96L112.64-13.96Q112.64-15.24 113.15-16.43Q113.66-17.62 114.62-18.54Q115.58-19.46 116.95-20.01Q118.32-20.56 120.04-20.56L120.04-20.56Q121.86-20.56 123.25-19.95Q124.64-19.34 125.64-18.30L125.64-18.30Z"></path>
    <path transform="" stroke="none" d=""></path>
    <path transform="" stroke="none" d="M145.72-2.50L145.72-2.50Q147.18-2.50 148.38-3.30Q149.58-4.10 150.42-5.43Q151.26-6.76 151.72-8.50Q152.18-10.24 152.18-12.14L152.18-12.14Q152.18-14.94 151.08-16.36Q149.98-17.78 147.90-17.78L147.90-17.78Q146.42-17.78 145.23-16.99Q144.04-16.20 143.20-14.87Q142.36-13.54 141.90-11.80Q141.44-10.06 141.44-8.16L141.44-8.16Q141.44-5.36 142.53-3.93Q143.62-2.50 145.72-2.50ZM145.40 0.28L145.40 0.28Q143.74 0.28 142.36-0.29Q140.98-0.86 139.98-1.94Q138.98-3.02 138.42-4.58Q137.86-6.14 137.86-8.14L137.86-8.14Q137.86-10.70 138.66-12.96Q139.46-15.22 140.85-16.92Q142.24-18.62 144.13-19.60Q146.02-20.58 148.22-20.58L148.22-20.58Q149.88-20.58 151.26-20.01Q152.64-19.44 153.64-18.36Q154.64-17.28 155.20-15.71Q155.76-14.14 155.76-12.16L155.76-12.16Q155.76-9.62 154.96-7.36Q154.16-5.10 152.77-3.40Q151.38-1.70 149.48-0.71Q147.58 0.28 145.40 0.28Z"></path>
    <path transform="" stroke="none" d="M170.86-17.30L165.94-17.30L163.92-0.66L163.00 3.48Q162.66 4.98 161.16 4.98L161.16 4.98L159.76 4.98L162.46-17.24L160.46-17.50Q160.12-17.60 159.92-17.78Q159.72-17.96 159.72-18.30L159.72-18.30L159.88-19.86L162.78-19.86L163.02-21.82Q163.24-23.56 163.89-24.91Q164.54-26.26 165.53-27.19Q166.52-28.12 167.79-28.60Q169.06-29.08 170.52-29.08L170.52-29.08Q171.76-29.08 172.78-28.68L172.78-28.68L172.44-26.84Q172.40-26.56 172.17-26.49Q171.94-26.42 171.58-26.42L171.58-26.42Q171.40-26.42 171.19-26.43Q170.98-26.44 170.74-26.44L170.74-26.44Q169.88-26.44 169.15-26.19Q168.42-25.94 167.86-25.38Q167.30-24.82 166.92-23.92Q166.54-23.02 166.38-21.72L166.38-21.72L166.14-19.86L171.20-19.86L170.86-17.30Z"></path>
    <path transform="" stroke="none" d=""></path>
    <path transform="" stroke="none" d="M192.86 0L183.42 0L186.96-28.66L195.44-28.66Q197.68-28.66 199.29-28.21Q200.90-27.76 201.94-26.93Q202.98-26.10 203.48-24.91Q203.98-23.72 203.98-22.26L203.98-22.26Q203.98-20.98 203.61-19.82Q203.24-18.66 202.50-17.68Q201.76-16.70 200.65-15.94Q199.54-15.18 198.06-14.72L198.06-14.72Q200.64-14.14 201.94-12.69Q203.24-11.24 203.24-9L203.24-9Q203.24-7.02 202.53-5.37Q201.82-3.72 200.48-2.52Q199.14-1.32 197.21-0.66Q195.28 0 192.86 0L192.86 0ZM194.40-13.10L188.78-13.10L187.52-2.96L193.16-2.96Q194.74-2.96 195.94-3.38Q197.14-3.80 197.94-4.58Q198.74-5.36 199.14-6.46Q199.54-7.56 199.54-8.94L199.54-8.94Q199.54-10.84 198.26-11.97Q196.98-13.10 194.40-13.10L194.40-13.10ZM190.34-25.72L189.10-15.74L193.72-15.74Q195.34-15.74 196.55-16.17Q197.76-16.60 198.57-17.37Q199.38-18.14 199.78-19.22Q200.18-20.30 200.18-21.60L200.18-21.60Q200.18-23.66 198.94-24.69Q197.70-25.72 195.10-25.72L195.10-25.72L190.34-25.72Z"></path>
    <path transform="" stroke="none" d="M225.64-19.60L223.22 0L221.38 0Q220.68 0 220.43-0.36Q220.18-0.72 220.18-1.24L220.18-1.24L220.54-5.34Q219.82-4.06 218.99-3.02Q218.16-1.98 217.23-1.25Q216.30-0.52 215.28-0.12Q214.26 0.28 213.16 0.28L213.16 0.28Q211.96 0.28 210.98-0.19Q210.00-0.66 209.31-1.57Q208.62-2.48 208.24-3.81Q207.86-5.14 207.86-6.86L207.86-6.86Q207.86-8.66 208.31-10.37Q208.76-12.08 209.59-13.60Q210.42-15.12 211.58-16.39Q212.74-17.66 214.17-18.59Q215.60-19.52 217.24-20.03Q218.88-20.54 220.68-20.54L220.68-20.54Q221.98-20.54 223.21-20.33Q224.44-20.12 225.64-19.60L225.64-19.60ZM214.50-2.68L214.50-2.68Q215.48-2.68 216.42-3.29Q217.36-3.90 218.20-4.98Q219.04-6.06 219.77-7.55Q220.50-9.04 221.06-10.82L221.06-10.82L221.92-17.78Q221.48-17.88 221.05-17.91Q220.62-17.94 220.20-17.94L220.20-17.94Q219.00-17.94 217.88-17.55Q216.76-17.16 215.78-16.46Q214.80-15.76 214.00-14.79Q213.20-13.82 212.63-12.66Q212.06-11.50 211.74-10.19Q211.42-8.88 211.42-7.50L211.42-7.50Q211.42-2.68 214.50-2.68Z"></path>
    <path transform="" stroke="none" d="M245.08-3.64L245.08-3.64Q244.04-2.50 243.11-1.74Q242.18-0.98 241.24-0.53Q240.30-0.08 239.29 0.10Q238.28 0.28 237.12 0.28L237.12 0.28Q235.36 0.28 234.01-0.32Q232.66-0.92 231.75-2.01Q230.84-3.10 230.37-4.63Q229.90-6.16 229.90-8L229.90-8Q229.90-10.46 230.67-12.72Q231.44-14.98 232.82-16.72Q234.20-18.46 236.10-19.50Q238.00-20.54 240.28-20.54L240.28-20.54Q242.28-20.54 243.64-19.83Q245.00-19.12 246.02-17.76L246.02-17.76L244.90-16.42Q244.78-16.26 244.60-16.16Q244.42-16.06 244.20-16.06L244.20-16.06Q243.92-16.06 243.65-16.31Q243.38-16.56 242.95-16.87Q242.52-17.18 241.87-17.43Q241.22-17.68 240.20-17.68L240.20-17.68Q238.82-17.68 237.59-16.93Q236.36-16.18 235.44-14.88Q234.52-13.58 233.99-11.80Q233.46-10.02 233.46-7.98L233.46-7.98Q233.46-6.74 233.74-5.73Q234.02-4.72 234.58-4.01Q235.14-3.30 235.95-2.91Q236.76-2.52 237.84-2.52L237.84-2.52Q238.74-2.52 239.44-2.71Q240.14-2.90 240.68-3.18Q241.22-3.46 241.63-3.79Q242.04-4.12 242.37-4.40Q242.70-4.68 242.97-4.87Q243.24-5.06 243.52-5.06L243.52-5.06Q243.92-5.06 244.20-4.72L244.20-4.72L245.08-3.64Z"></path>
    <path transform="" stroke="none" d="M252.80-29.46L256.30-29.46L254.18-12.12L254.80-12.12Q255.20-12.12 255.46-12.23Q255.72-12.34 256.04-12.68L256.04-12.68L262.74-19.54Q263.06-19.86 263.36-20.06Q263.66-20.26 264.14-20.26L264.14-20.26L267.28-20.26L259.46-12.32Q259.16-12 258.87-11.73Q258.58-11.46 258.24-11.26L258.24-11.26Q258.56-11.02 258.78-10.70Q259.00-10.38 259.22-10L259.22-10L265.30 0L262.24 0Q261.80 0 261.53-0.16Q261.26-0.32 261.04-0.70L261.04-0.70L255.88-9Q255.62-9.40 255.37-9.54Q255.12-9.68 254.56-9.68L254.56-9.68L253.88-9.68L252.70 0L249.18 0L252.80-29.46Z"></path>
    <path transform="" stroke="none" d="M283.76-18.30L282.86-17.02Q282.70-16.78 282.54-16.67Q282.38-16.56 282.14-16.56L282.14-16.56Q281.86-16.56 281.53-16.78Q281.20-17 280.73-17.27Q280.26-17.54 279.58-17.77Q278.90-18 277.94-18L277.94-18Q277.04-18 276.30-17.75Q275.56-17.50 275.02-17.06Q274.48-16.62 274.19-16.03Q273.90-15.44 273.90-14.78L273.90-14.78Q273.90-13.84 274.52-13.28Q275.14-12.72 276.08-12.31Q277.02-11.90 278.11-11.52Q279.20-11.14 280.14-10.56Q281.08-9.98 281.70-9.08Q282.32-8.18 282.32-6.74L282.32-6.74Q282.32-5.34 281.77-4.06Q281.22-2.78 280.19-1.81Q279.16-0.84 277.71-0.26Q276.26 0.32 274.46 0.32L274.46 0.32Q272.52 0.32 271.03-0.37Q269.54-1.06 268.60-2.14L268.60-2.14L269.48-3.50Q269.64-3.76 269.86-3.90Q270.08-4.04 270.42-4.04L270.42-4.04Q270.74-4.04 271.06-3.76Q271.38-3.48 271.86-3.13Q272.34-2.78 273.07-2.50Q273.80-2.22 274.92-2.22L274.92-2.22Q275.90-2.22 276.69-2.52Q277.48-2.82 278.03-3.32Q278.58-3.82 278.87-4.49Q279.16-5.16 279.16-5.92L279.16-5.92Q279.16-6.94 278.54-7.54Q277.92-8.14 276.98-8.54Q276.04-8.94 274.96-9.29Q273.88-9.64 272.94-10.19Q272.00-10.74 271.38-11.62Q270.76-12.50 270.76-13.96L270.76-13.96Q270.76-15.24 271.27-16.43Q271.78-17.62 272.74-18.54Q273.70-19.46 275.07-20.01Q276.44-20.56 278.16-20.56L278.16-20.56Q279.98-20.56 281.37-19.95Q282.76-19.34 283.76-18.30L283.76-18.30Z"></path>
    <path transform="" stroke="none" d="M288.74-3.82L288.74-3.82Q288.74-3.94 288.75-4.13Q288.76-4.32 288.79-4.68Q288.82-5.04 288.88-5.62Q288.94-6.20 289.06-7.14L289.06-7.14L290.32-17.28L288.06-17.28Q287.80-17.28 287.63-17.43Q287.46-17.58 287.46-17.90L287.46-17.90Q287.46-17.96 287.48-18.14Q287.50-18.32 287.53-18.55Q287.56-18.78 287.59-19.02Q287.62-19.26 287.64-19.48L287.64-19.48L290.76-19.90L292.26-26.16Q292.34-26.46 292.56-26.65Q292.78-26.84 293.10-26.84L293.10-26.84L294.98-26.84L294.10-19.86L299.42-19.86L299.12-17.28L293.78-17.28L292.56-7.32Q292.46-6.50 292.41-6Q292.36-5.50 292.33-5.20Q292.30-4.90 292.29-4.78Q292.28-4.66 292.28-4.60L292.28-4.60Q292.28-3.58 292.75-3.09Q293.22-2.60 294.04-2.60L294.04-2.60Q294.56-2.60 294.96-2.75Q295.36-2.90 295.65-3.08Q295.94-3.26 296.14-3.41Q296.34-3.56 296.50-3.56L296.50-3.56Q296.66-3.56 296.75-3.48Q296.84-3.40 296.94-3.22L296.94-3.22L297.68-1.52Q296.72-0.66 295.47-0.17Q294.22 0.32 292.96 0.32L292.96 0.32Q291.02 0.32 289.90-0.74Q288.78-1.80 288.74-3.82Z"></path>
    <path transform="" stroke="none" d="M319.60-19.60L317.18 0L315.34 0Q314.64 0 314.39-0.36Q314.14-0.72 314.14-1.24L314.14-1.24L314.50-5.34Q313.78-4.06 312.95-3.02Q312.12-1.98 311.19-1.25Q310.26-0.52 309.24-0.12Q308.22 0.28 307.12 0.28L307.12 0.28Q305.92 0.28 304.94-0.19Q303.96-0.66 303.27-1.57Q302.58-2.48 302.20-3.81Q301.82-5.14 301.82-6.86L301.82-6.86Q301.82-8.66 302.27-10.37Q302.72-12.08 303.55-13.60Q304.38-15.12 305.54-16.39Q306.70-17.66 308.13-18.59Q309.56-19.52 311.20-20.03Q312.84-20.54 314.64-20.54L314.64-20.54Q315.94-20.54 317.17-20.33Q318.40-20.12 319.60-19.60L319.60-19.60ZM308.46-2.68L308.46-2.68Q309.44-2.68 310.38-3.29Q311.32-3.90 312.16-4.98Q313.00-6.06 313.73-7.55Q314.46-9.04 315.02-10.82L315.02-10.82L315.88-17.78Q315.44-17.88 315.01-17.91Q314.58-17.94 314.16-17.94L314.16-17.94Q312.96-17.94 311.84-17.55Q310.72-17.16 309.74-16.46Q308.76-15.76 307.96-14.79Q307.16-13.82 306.59-12.66Q306.02-11.50 305.70-10.19Q305.38-8.88 305.38-7.50L305.38-7.50Q305.38-2.68 308.46-2.68Z"></path>
    <path transform="" stroke="none" d="M338.98-14.64L338.98-14.64Q338.96-13.64 338.73-12.84Q338.50-12.04 338.16-11.36Q337.82-10.68 337.42-10.08Q337.02-9.48 336.68-8.88Q336.34-8.28 336.11-7.65Q335.88-7.02 335.88-6.28L335.88-6.28Q335.88-5.44 336.29-4.76Q336.70-4.08 337.19-3.36Q337.68-2.64 338.09-1.79Q338.50-0.94 338.50 0.22L338.50 0.22Q338.50 1.64 337.84 2.91Q337.18 4.18 335.96 5.16Q334.74 6.14 332.99 6.71Q331.24 7.28 329.06 7.28L329.06 7.28Q327.32 7.28 325.89 6.92Q324.46 6.56 323.45 5.90Q322.44 5.24 321.89 4.31Q321.34 3.38 321.34 2.26L321.34 2.26Q321.34 0.68 322.16-0.46Q322.98-1.60 324.32-2.34Q325.66-3.08 327.37-3.42Q329.08-3.76 330.86-3.76L330.86-3.76Q331.58-3.76 332.29-3.70Q333.00-3.64 333.70-3.54L333.70-3.54Q333.52-3.92 333.41-4.33Q333.30-4.74 333.30-5.22L333.30-5.22Q333.30-5.84 333.49-6.50Q333.68-7.16 334.12-7.98L334.12-7.98Q333.36-7.46 332.42-7.18Q331.48-6.90 330.28-6.90L330.28-6.90Q329.12-6.90 328.11-7.28Q327.10-7.66 326.34-8.40Q325.58-9.14 325.14-10.25Q324.70-11.36 324.70-12.84L324.70-12.84Q324.70-14.28 325.23-15.67Q325.76-17.06 326.78-18.15Q327.80-19.24 329.30-19.90Q330.80-20.56 332.76-20.56L332.76-20.56Q334.96-20.56 336.58-19.52L336.58-19.52L342.08-19.52L341.92-18.34Q341.88-18 341.69-17.72Q341.50-17.44 341.12-17.38L341.12-17.38L338.60-16.94Q338.78-16.42 338.88-15.85Q338.98-15.28 338.98-14.64ZM331.26-9.14L331.26-9.14Q332.34-9.14 333.16-9.61Q333.98-10.08 334.55-10.85Q335.12-11.62 335.42-12.58Q335.72-13.54 335.72-14.52L335.72-14.52Q335.72-16.28 334.83-17.18Q333.94-18.08 332.38-18.08L332.38-18.08Q331.30-18.08 330.48-17.64Q329.66-17.20 329.10-16.46Q328.54-15.72 328.25-14.78Q327.96-13.84 327.96-12.82L327.96-12.82Q327.96-11.02 328.83-10.08Q329.70-9.14 331.26-9.14ZM335.26 0.50L335.26 0.50Q335.26-0.02 335.16-0.47Q335.06-0.92 334.90-1.32L334.90-1.32Q333.82-1.50 332.87-1.58Q331.92-1.66 331.08-1.66L331.08-1.66Q329.44-1.66 328.24-1.37Q327.04-1.08 326.26-0.60Q325.48-0.12 325.10 0.51Q324.72 1.14 324.72 1.82L324.72 1.82Q324.72 3.26 325.93 4.02Q327.14 4.78 329.36 4.78L329.36 4.78Q330.68 4.78 331.77 4.43Q332.86 4.08 333.63 3.50Q334.40 2.92 334.83 2.14Q335.26 1.36 335.26 0.50Z"></path>
    <path transform="" stroke="none" d="M360.46-15.92L360.46-15.92Q360.46-14.60 359.92-13.49Q359.38-12.38 357.94-11.49Q356.50-10.60 353.98-9.94Q351.46-9.28 347.50-8.88L347.50-8.88Q347.48-8.66 347.48-8.45Q347.48-8.24 347.48-8.02L347.48-8.02Q347.48-5.34 348.65-3.93Q349.82-2.52 352.18-2.52L352.18-2.52Q353.14-2.52 353.89-2.72Q354.64-2.92 355.23-3.21Q355.82-3.50 356.27-3.85Q356.72-4.20 357.10-4.49Q357.48-4.78 357.80-4.98Q358.12-5.18 358.44-5.18L358.44-5.18Q358.80-5.18 359.10-4.84L359.10-4.84L359.98-3.74Q358.96-2.68 357.99-1.93Q357.02-1.18 356-0.68Q354.98-0.18 353.87 0.05Q352.76 0.28 351.48 0.28L351.48 0.28Q349.74 0.28 348.36-0.30Q346.98-0.88 346.02-1.95Q345.06-3.02 344.54-4.54Q344.02-6.06 344.02-7.94L344.02-7.94Q344.02-9.50 344.35-11.05Q344.68-12.60 345.31-14Q345.94-15.40 346.85-16.60Q347.76-17.80 348.93-18.67Q350.10-19.54 351.51-20.04Q352.92-20.54 354.54-20.54L354.54-20.54Q356.08-20.54 357.20-20.10Q358.32-19.66 359.04-18.98Q359.76-18.30 360.11-17.48Q360.46-16.66 360.46-15.92ZM354.34-17.98L354.34-17.98Q353.08-17.98 352.02-17.46Q350.96-16.94 350.14-16.03Q349.32-15.12 348.74-13.89Q348.16-12.66 347.84-11.24L347.84-11.24Q350.92-11.62 352.78-12.11Q354.64-12.60 355.64-13.17Q356.64-13.74 356.96-14.40Q357.28-15.06 357.28-15.78L357.28-15.78Q357.28-16.14 357.12-16.53Q356.96-16.92 356.61-17.24Q356.26-17.56 355.70-17.77Q355.14-17.98 354.34-17.98Z"></path>
    </g>
        </svg>
      </g><g opacity="1" transform="rotate(-5 0 25.809799999999996)">
        <svg width="296.1346" height="57.2807" x="0" y="25.809799999999996" version="1.1" preserveAspectRatio="none" viewBox="3.75 -29.1311 212.5977 41.1233">
          <g transform="matrix(1 0 0 1 0 0)" class="aD6z1nYkhcolorOvB5CUJ9q"><path transform="" stroke="none" d="M30.80-10.80L30.80-10.80Q31.33-10.80 31.33-9.41Q31.33-8.03 31.15-7.56L31.15-7.56Q30.57-6.05 28.43-4.19Q26.29-2.32 23.74-1.03Q21.19 0.27 19.55 0.27L19.55 0.27Q18.77 0.27 18.23-0.33Q17.70-0.94 17.70-1.91L17.70-1.91Q17.70-3.65 19.69-7.23Q21.68-10.80 24.51-14.69L24.51-14.69Q19.80-9.22 17.84-7.30Q15.88-5.39 14.34-4.03Q12.79-2.68 11.56-1.86L11.56-1.86Q8.63 0.08 6.91 0.08Q5.20 0.08 4.47-0.87Q3.75-1.82 3.75-2.97L3.75-2.97Q3.75-6.35 7.71-12.47Q11.66-18.59 14.98-22.48L14.98-22.48Q12.17-20 11.10-20Q10.04-20 9.51-20.65Q8.98-21.31 8.98-22.14Q8.98-22.97 9.77-23.70Q10.55-24.43 10.91-24.43Q11.27-24.43 11.27-24.38Q11.27-24.32 10.98-23.96Q10.68-23.59 10.68-23.46Q10.68-23.32 10.94-23.32L10.94-23.32Q11.70-23.32 14.26-24.86Q16.82-26.41 18.63-27.87L18.63-27.87Q19.12-28.28 19.76-28.28Q20.39-28.28 20.98-27.97L20.98-27.97Q21.02-28.07 21.31-27.93Q21.60-27.79 21.89-27.50Q22.19-27.21 22.19-26.95Q22.19-26.70 22.03-26.48L22.03-26.48Q13.91-15.98 11.82-12.79L11.82-12.79Q7.58-6.33 7.58-4.39L7.58-4.39Q7.58-3.71 8.15-3.71Q8.73-3.71 11.41-5.90L11.41-5.90Q18.75-11.88 31.99-26.99L31.99-26.99Q32.52-27.60 32.99-27.56L32.99-27.56L33.16-27.56Q33.24-27.56 33.60-27.63Q33.96-27.70 34.79-27.70L34.79-27.70Q36.74-27.70 36.74-26.97L36.74-26.97Q36.74-26.66 36.16-25.88Q35.59-25.10 33.77-22.52Q31.95-19.94 29.25-15.98Q26.54-12.01 24.58-8.69Q22.62-5.37 22.62-4.47L22.62-4.47Q22.62-4.45 22.69-4.45Q22.75-4.45 23.30-4.73L23.30-4.73Q24.98-5.61 27.24-7.52Q29.49-9.43 30.09-10.12Q30.68-10.80 30.80-10.80Z"></path>
    <path transform="" stroke="none" d="M41.02-3.01L41.02-3.01Q41.02-2.15 42.19-2.15L42.19-2.15Q42.81-2.15 43.76-2.77Q44.71-3.40 45.47-4.14L45.47-4.14Q47.50-6.15 47.77-6.15L47.77-6.15Q48.28-6.15 48.28-4.69Q48.28-3.22 47.36-2.68L47.36-2.68Q44.57-0.16 43.05 0.39L43.05 0.39Q42.19 0.68 41.15 0.66Q40.12 0.64 39.10-0.23Q38.09-1.11 38.09-2.37Q38.09-3.63 38.75-5.23Q39.41-6.84 40.11-7.98Q40.80-9.12 41.82-10.63Q42.83-12.15 42.89-12.52L42.89-12.52L42.85-12.56Q42.21-12.50 39.66-10.02Q37.11-7.54 35.45-5.70Q33.79-3.87 31.48-0.80L31.48-0.80Q30.84 0.04 30.43 0.04Q30.02 0.04 29.33-0.22Q28.63-0.49 28.48-0.61Q28.32-0.72 28.32-0.96Q28.32-1.19 28.46-1.53Q28.59-1.88 28.72-2.10Q28.85-2.32 29.14-2.79Q29.43-3.26 30.30-4.78Q31.17-6.29 32.97-9.30Q34.77-12.30 35.12-12.93L35.12-12.93Q35.86-14.22 36.33-14.80L36.33-14.80Q37.21-15.92 39.30-15.92L39.30-15.92Q39.77-15.92 39.77-15.33L39.77-15.33Q39.77-14.41 38.07-11.88L38.07-11.88L37.25-10.64Q40.63-14.39 42.95-15.39L42.95-15.39Q44.08-15.88 44.99-15.88Q45.90-15.88 46.44-15.39Q46.97-14.90 46.97-14.31Q46.97-13.71 46.56-12.88Q46.15-12.05 45.73-11.40Q45.31-10.74 44.63-9.75Q43.95-8.75 43.89-8.66Q43.83-8.57 43.58-8.19Q43.34-7.81 43.22-7.64Q43.11-7.46 42.83-7.02Q42.56-6.58 42.39-6.29Q42.23-6.00 41.98-5.57Q41.74-5.14 41.59-4.82Q41.45-4.51 41.29-4.14L41.29-4.14Q41.02-3.46 41.02-3.01Z"></path>
    <path transform="" stroke="none" d="M48.59-3.91L48.59-3.91L48.57-3.59Q48.57-3.11 48.95-2.75Q49.32-2.40 49.63-2.40L49.63-2.40Q51.97-2.40 53.78-3.11Q55.59-3.81 55.59-4.51L55.59-4.51Q55.59-4.84 54.93-5.09Q54.28-5.33 52.72-5.69Q51.17-6.05 50.47-6.26Q49.77-6.46 49.36-6.64Q48.95-6.82 48.52-7.13L48.52-7.13Q47.60-7.77 47.60-9.05Q47.60-10.33 48.54-11.59Q49.49-12.85 50.92-13.75Q52.34-14.65 53.98-15.33L53.98-15.33Q57.23-16.68 59.43-16.68L59.43-16.68Q61.60-16.68 62.11-15.74L62.11-15.74Q62.27-15.41 62.27-15L62.27-15L62.27-14.86Q62.27-13.83 61.83-13.24Q61.39-12.66 60.44-12.19Q59.49-11.72 58.94-11.72Q58.38-11.72 58.23-11.80Q58.09-11.88 57.99-12.00Q57.89-12.13 57.74-12.19Q57.60-12.25 57.60-12.48Q57.60-12.71 57.79-12.96Q57.99-13.20 58.07-13.48L58.07-13.48Q56.78-13.42 55.37-12.88Q53.96-12.34 52.96-11.68Q51.95-11.02 51.29-10.41Q50.63-9.80 50.63-9.52Q50.63-9.24 51.52-9.06L51.52-9.06Q55.57-8.26 56.84-7.68Q58.11-7.09 58.59-6.35Q59.08-5.61 59.08-5L59.08-5Q59.08-3.75 58.09-2.64Q57.09-1.52 55.63-0.82L55.63-0.82Q52.48 0.72 50.15 0.72Q47.81 0.72 46.92 0.01Q46.04-0.70 46.04-1.68Q46.04-2.66 46.53-3.49Q47.03-4.32 47.81-4.32Q48.59-4.32 48.59-3.91Z"></path>
    <path transform="" stroke="none" d="M74.59-14.61L74.59-14.61Q74.59-13.32 73.54-12.34Q72.50-11.37 71.17-11.37L71.17-11.37Q70.74-11.37 70.61-11.57Q70.47-11.78 70.47-12.11Q70.47-12.44 70.55-12.75L70.55-12.75Q69.84-12.52 68.98-12.03Q68.13-11.54 66.88-10.59Q65.63-9.63 65.63-9.16L65.63-9.16Q65.63-9.00 66.08-9.00Q66.54-9.00 67.50-9.33Q68.46-9.65 68.84-9.65Q69.22-9.65 69.34-9.61L69.34-9.61Q69.59-9.47 69.88-9.01Q70.18-8.55 70.18-8.29Q70.18-8.03 69.67-7.60Q69.16-7.17 68.52-6.94Q67.87-6.72 67.66-6.60L67.66-6.60Q63.54-4.30 63.54-3.44L63.54-3.44Q63.54-1.91 66.13-1.91L66.13-1.91Q67.79-1.91 69.47-2.97L69.47-2.97Q70.90-3.87 72.04-4.79Q73.18-5.72 73.49-5.94Q73.79-6.15 73.95-6.15L73.95-6.15Q74.45-6.15 74.45-5.02Q74.45-3.89 74.32-3.53Q74.18-3.16 73.54-2.64L73.54-2.64Q69.36 0.76 65.63 0.76L65.63 0.76Q63.63 0.76 62.44 0.21L62.44 0.21Q60.25-0.78 60.25-2.83L60.25-2.83Q60.25-5.53 63.98-6.91L63.98-6.91Q63.24-7.25 63.03-7.76Q62.81-8.28 62.81-9.42Q62.81-10.57 63.88-11.85Q64.94-13.13 66.48-13.95L66.48-13.95Q69.92-15.80 72.62-15.80L72.62-15.80Q73.26-15.80 73.93-15.49Q74.59-15.18 74.59-14.61Z"></path>
    <path transform="" stroke="none" d="M87.29-14.61L87.29-14.61Q87.29-13.32 86.24-12.34Q85.20-11.37 83.87-11.37L83.87-11.37Q83.44-11.37 83.30-11.57Q83.16-11.78 83.16-12.11Q83.16-12.44 83.24-12.75L83.24-12.75Q82.54-12.52 81.68-12.03Q80.82-11.54 79.57-10.59Q78.32-9.63 78.32-9.16L78.32-9.16Q78.32-9.00 78.78-9.00Q79.24-9.00 80.20-9.33Q81.15-9.65 81.53-9.65Q81.91-9.65 82.03-9.61L82.03-9.61Q82.29-9.47 82.58-9.01Q82.87-8.55 82.87-8.29Q82.87-8.03 82.36-7.60Q81.86-7.17 81.21-6.94Q80.57-6.72 80.35-6.60L80.35-6.60Q76.23-4.30 76.23-3.44L76.23-3.44Q76.23-1.91 78.83-1.91L78.83-1.91Q80.49-1.91 82.17-2.97L82.17-2.97Q83.59-3.87 84.74-4.79Q85.88-5.72 86.18-5.94Q86.48-6.15 86.64-6.15L86.64-6.15Q87.15-6.15 87.15-5.02Q87.15-3.89 87.01-3.53Q86.88-3.16 86.23-2.64L86.23-2.64Q82.05 0.76 78.32 0.76L78.32 0.76Q76.33 0.76 75.14 0.21L75.14 0.21Q72.95-0.78 72.95-2.83L72.95-2.83Q72.95-5.53 76.68-6.91L76.68-6.91Q75.94-7.25 75.72-7.76Q75.51-8.28 75.51-9.42Q75.51-10.57 76.57-11.85Q77.64-13.13 79.18-13.95L79.18-13.95Q82.62-15.80 85.31-15.80L85.31-15.80Q85.96-15.80 86.62-15.49Q87.29-15.18 87.29-14.61Z"></path>
    <path transform="" stroke="none" d="M96.74-3.01L96.74-3.01Q96.74-2.15 97.91-2.15L97.91-2.15Q98.54-2.15 99.48-2.77Q100.43-3.40 101.19-4.14L101.19-4.14Q103.22-6.15 103.50-6.15L103.50-6.15Q104.00-6.15 104.00-4.69Q104.00-3.22 103.09-2.68L103.09-2.68Q100.29-0.16 98.77 0.39L98.77 0.39Q97.91 0.68 96.88 0.66Q95.84 0.64 94.82-0.23Q93.81-1.11 93.81-2.37Q93.81-3.63 94.47-5.23Q95.14-6.84 95.83-7.98Q96.52-9.12 97.54-10.63Q98.55-12.15 98.61-12.52L98.61-12.52L98.57-12.56Q97.93-12.50 95.38-10.02Q92.83-7.54 91.17-5.70Q89.51-3.87 87.21-0.80L87.21-0.80Q86.56 0.04 86.15 0.04Q85.74 0.04 85.05-0.22Q84.36-0.49 84.20-0.61Q84.04-0.72 84.04-0.96Q84.04-1.19 84.18-1.53Q84.32-1.88 84.44-2.10Q84.57-2.32 84.86-2.79Q85.16-3.26 86.03-4.78Q86.89-6.29 88.69-9.30Q90.49-12.30 90.84-12.93L90.84-12.93Q91.58-14.22 92.05-14.80L92.05-14.80Q92.93-15.92 95.02-15.92L95.02-15.92Q95.49-15.92 95.49-15.33L95.49-15.33Q95.49-14.41 93.79-11.88L93.79-11.88L92.97-10.64Q96.35-14.39 98.67-15.39L98.67-15.39Q99.80-15.88 100.71-15.88Q101.62-15.88 102.16-15.39Q102.70-14.90 102.70-14.31Q102.70-13.71 102.29-12.88Q101.88-12.05 101.46-11.40Q101.04-10.74 100.35-9.75Q99.67-8.75 99.61-8.66Q99.55-8.57 99.31-8.19Q99.06-7.81 98.95-7.64Q98.83-7.46 98.55-7.02Q98.28-6.58 98.12-6.29Q97.95-6.00 97.71-5.57Q97.46-5.14 97.31-4.82Q97.17-4.51 97.01-4.14L97.01-4.14Q96.74-3.46 96.74-3.01Z"></path>
    <path transform="" stroke="none" d=""></path>
    <path transform="" stroke="none" d="M120.53-19.10L120.53-19.10Q120.53-17.83 124.96-17.83L124.96-17.83Q126.05-17.83 126.58-18.07L126.58-18.07Q127.97-18.73 129.99-18.73Q132.01-18.73 132.01-17.70L132.01-17.70Q132.01-17.29 131.67-16.49Q131.33-15.70 131.16-15.53Q131.00-15.35 129.90-15.05Q128.81-14.75 128.49-14.72Q128.16-14.69 128.06-14.67Q127.95-14.65 127.80-14.63Q127.66-14.61 127.15-14.52Q126.64-14.43 126.41-14.53L126.41-14.53Q119.94-11.35 117.52-7.54L117.52-7.54Q116.43-5.82 116.43-4.59L116.43-4.59Q116.43-2.66 119.10-2.66L119.10-2.66Q121.19-2.66 124.41-4.30Q127.64-5.94 130.13-8.27Q132.62-10.61 132.62-12.32L132.62-12.32Q132.62-12.87 133.44-12.87L133.44-12.87Q135.33-12.87 135.33-10.63L135.33-10.63Q135.33-9.57 134.41-8.12Q133.50-6.66 131.86-5.17Q130.21-3.67 128.20-2.38Q126.19-1.09 123.74-0.27Q121.29 0.55 119.59 0.55Q117.89 0.55 116.85 0.22Q115.80-0.10 114.88-0.74L114.88-0.74Q112.89-2.13 112.89-4.94L112.89-4.94Q112.89-6.46 113.71-8.04Q114.53-9.61 115.86-10.90L115.86-10.90Q118.30-13.32 121.09-14.92L121.09-14.92Q117.07-15.84 117.07-19.06L117.07-19.06Q117.07-22.70 122.66-25.70L122.66-25.70Q125.76-27.36 129.39-28.09L129.39-28.09Q131.11-28.44 132.27-28.44L132.27-28.44Q134.61-28.44 135.80-28.07L135.80-28.07Q136.52-27.71 136.97-27.08Q137.42-26.45 137.42-25.99Q137.42-25.53 137.30-25.16Q137.19-24.79 136.91-24.57L136.91-24.57Q136.52-24.28 136.04-24.12Q135.55-23.96 135.47-23.93L135.47-23.93Q133.95-23.28 132.85-23.28L132.85-23.28Q130.90-23.28 130.72-23.79L130.72-23.79Q130.76-24.30 131.15-24.96L131.15-24.96Q129.30-24.88 127.30-24.21Q125.31-23.54 123.86-22.63Q122.40-21.72 121.46-20.74Q120.53-19.77 120.53-19.10Z"></path>
    <path transform="" stroke="none" d="M133.44-6.29L133.44-6.29L133.28-6.84Q133.28-6.99 133.44-7.10Q133.59-7.21 133.84-7.54Q134.08-7.87 134.19-7.97Q134.30-8.07 134.50-8.25Q134.71-8.44 134.84-8.55L134.84-8.55Q135.23-8.89 135.39-8.94Q135.55-8.98 135.94-9.10L135.94-9.10Q137.15-9.49 137.99-9.65L137.99-9.65Q142.97-17.97 145.99-22.67Q149.00-27.36 149.42-27.86Q149.84-28.36 150.92-28.75Q151.99-29.14 152.49-29.13Q152.99-29.12 152.99-28.69L152.99-28.69Q152.99-28.52 152.86-28.22Q152.73-27.93 150.72-24.77L150.72-24.77Q143.28-13.11 141.19-9.65L141.19-9.65L141.68-9.47Q146.21-10.31 146.40-10.31Q146.58-10.31 147.33-10.05Q148.09-9.79 148.32-9.75L148.32-9.75Q148.77-9.67 148.77-9.01Q148.77-8.36 148.36-8.28L148.36-8.28Q148.03-8.22 146.77-7.90Q145.51-7.58 144.75-7.40L144.75-7.40Q145.78-6.17 145.78-4.79Q145.78-3.40 144.55-1.12Q143.32 1.15 141.41 3.38Q139.49 5.61 137.39 7.58Q135.29 9.55 133.36 10.77Q131.43 11.99 130.50 11.99Q129.57 11.99 128.84 11.49Q128.11 11.00 128.11 10.02Q128.11 9.04 128.51 7.74Q128.91 6.45 129.38 5.36Q129.84 4.28 130.98 2.25L130.98 2.25Q132.19 0.06 135.35-5.23L135.35-5.23Q134.80-5.14 134.51-5.14Q134.22-5.14 133.96-5.27Q133.71-5.41 133.61-5.63L133.61-5.63Q133.44-6.02 133.44-6.29ZM138.94 2.13Q140.39 0.43 141.39-1.44Q142.38-3.30 142.38-4.48Q142.38-5.66 141.23-6.56L141.23-6.56L139.06-6.07Q138.73-5.53 138.04-4.35Q137.34-3.16 136.90-2.42Q136.46-1.68 135.78-0.51Q135.10 0.66 134.64 1.46Q134.18 2.27 133.62 3.27Q133.07 4.28 132.71 4.99Q132.34 5.70 132.01 6.41L132.01 6.41Q131.37 7.77 131.37 8.18Q131.37 8.59 131.58 8.59L131.58 8.59Q131.97 8.59 133.19 7.71Q134.41 6.82 135.95 5.32Q137.48 3.83 138.94 2.13Z"></path>
    <path transform="" stroke="none" d="M147.83-6.29L147.83-6.29L147.68-6.84Q147.68-6.99 147.83-7.10Q147.99-7.21 148.23-7.54Q148.48-7.87 148.58-7.97Q148.69-8.07 148.90-8.25Q149.10-8.44 149.24-8.55L149.24-8.55Q149.63-8.89 149.79-8.94Q149.94-8.98 150.33-9.10L150.33-9.10Q151.54-9.49 152.38-9.65L152.38-9.65Q157.36-17.97 160.38-22.67Q163.40-27.36 163.82-27.86Q164.24-28.36 165.31-28.75Q166.39-29.14 166.88-29.13Q167.38-29.12 167.38-28.69L167.38-28.69Q167.38-28.52 167.26-28.22Q167.13-27.93 165.12-24.77L165.12-24.77Q157.68-13.11 155.59-9.65L155.59-9.65L156.07-9.47Q160.61-10.31 160.79-10.31Q160.98-10.31 161.73-10.05Q162.48-9.79 162.71-9.75L162.71-9.75Q163.16-9.67 163.16-9.01Q163.16-8.36 162.75-8.28L162.75-8.28Q162.42-8.22 161.16-7.90Q159.90-7.58 159.14-7.40L159.14-7.40Q160.18-6.17 160.18-4.79Q160.18-3.40 158.95-1.12Q157.71 1.15 155.80 3.38Q153.89 5.61 151.79 7.58Q149.69 9.55 147.75 10.77Q145.82 11.99 144.89 11.99Q143.96 11.99 143.23 11.49Q142.50 11.00 142.50 10.02Q142.50 9.04 142.90 7.74Q143.30 6.45 143.77 5.36Q144.24 4.28 145.37 2.25L145.37 2.25Q146.58 0.06 149.75-5.23L149.75-5.23Q149.20-5.14 148.91-5.14Q148.61-5.14 148.36-5.27Q148.11-5.41 148.01-5.63L148.01-5.63Q147.83-6.02 147.83-6.29ZM153.33 2.13Q154.79 0.43 155.78-1.44Q156.78-3.30 156.78-4.48Q156.78-5.66 155.63-6.56L155.63-6.56L153.46-6.07Q153.13-5.53 152.43-4.35Q151.74-3.16 151.30-2.42Q150.86-1.68 150.18-0.51Q149.49 0.66 149.03 1.46Q148.57 2.27 148.02 3.27Q147.46 4.28 147.10 4.99Q146.74 5.70 146.41 6.41L146.41 6.41Q145.76 7.77 145.76 8.18Q145.76 8.59 145.98 8.59L145.98 8.59Q146.37 8.59 147.59 7.71Q148.81 6.82 150.34 5.32Q151.88 3.83 153.33 2.13Z"></path>
    <path transform="" stroke="none" d="M176.58-14.88Q177.17-14.88 177.78-14.36Q178.40-13.83 178.40-12.74Q178.40-11.66 177.64-9.93Q176.88-8.20 175.55-6.42Q174.22-4.63 172.63-3.06Q171.04-1.48 169.19-0.48Q167.34 0.53 165.84 0.53Q164.34 0.53 163.43-0.42Q162.52-1.37 162.52-3.06Q162.52-4.75 163.35-6.80Q164.18-8.85 165.49-10.42Q166.80-11.99 168.32-13.24L168.32-13.24Q171.50-15.80 173.91-15.80L173.91-15.80Q174.98-15.80 175.53-15.27L175.53-15.27Q175.72-15.10 175.72-14.96L175.72-14.96L175.72-14.84Q176.00-14.88 176.58-14.88ZM174.61-12.29L174.61-12.29L174.47-12.29Q173.79-12.29 173.79-13.28L173.79-13.28Q172.36-12.81 170.80-11.64Q169.24-10.47 168.01-8.87L168.01-8.87Q165.51-5.66 165.47-3.46L165.47-3.46Q165.47-2.36 166.27-2.36Q167.07-2.36 168.65-3.42Q170.23-4.47 171.79-6.43Q173.34-8.38 174.11-9.81Q174.88-11.25 174.88-11.77Q174.88-12.29 174.61-12.29Z"></path>
    <path transform="" stroke="none" d="M185.18-11.88L184.36-10.64Q188.96-15.88 192.21-15.88L192.21-15.88Q193.01-15.88 193.53-15.40Q194.04-14.92 194.04-14.16Q194.04-13.40 192.96-11.61Q191.88-9.82 190.96-8.59L190.96-8.59Q190.47-7.97 189.85-7.97Q189.24-7.97 188.90-8.42Q188.55-8.87 188.55-9.47L188.55-9.47Q188.55-10.82 190-12.52L190-12.52L189.96-12.56Q189.32-12.50 186.77-10.02Q184.22-7.54 182.43-5.58Q180.64-3.61 178.55-0.80L178.55-0.80Q177.95 0.04 177.53 0.04Q177.11 0.04 176.42-0.22Q175.72-0.49 175.58-0.61Q175.43-0.72 175.43-1.00Q175.43-1.27 175.59-1.63Q175.74-1.99 176.16-2.66Q176.58-3.32 177.43-4.80Q178.28-6.29 180.08-9.30Q181.88-12.30 182.23-12.93L182.23-12.93Q182.97-14.22 183.44-14.80L183.44-14.80Q184.32-15.92 186.41-15.92L186.41-15.92Q186.88-15.92 186.88-15.33L186.88-15.33Q186.88-14.41 185.18-11.88L185.18-11.88Z"></path>
    <path transform="" stroke="none" d="M204.45-25.04L205.37-25.16L206.17-24.96Q206.35-24.96 206.48-24.79Q206.62-24.61 206.62-24.45Q206.62-24.30 206.21-23.61Q205.80-22.93 205.24-22.06Q204.69-21.19 204.65-21.11L204.65-21.11Q206.17-21.23 206.81-21.23Q207.44-21.23 207.68-21.14Q207.91-21.05 208.21-20.65Q208.52-20.25 208.77-20.05Q209.02-19.84 209.02-19.43Q209.02-19.02 208.53-18.74Q208.03-18.46 207.46-18.40L207.46-18.40Q202.93-17.95 202.46-17.93L202.46-17.93Q200.88-15.51 198.04-10.38Q195.20-5.25 195.02-3.96L195.02-3.96Q194.94-3.38 194.94-3.01L194.94-3.01Q194.94-2.25 195.74-2.25Q196.54-2.25 197.52-2.86Q198.50-3.48 199.32-4.20L199.32-4.20Q201.50-6.15 201.66-6.15L201.66-6.15Q202.17-6.15 202.17-4.39L202.17-4.39Q202.17-3.44 201.29-2.68L201.29-2.68Q199.32-0.98 197.97-0.12Q196.62 0.74 195.27 0.74L195.27 0.74Q194.98 0.74 194.73 0.68L194.73 0.68Q193.16 0.39 192.43-0.46Q191.70-1.31 191.71-2.75Q191.72-4.20 192.57-6.26Q193.42-8.32 194.71-10.64L194.71-10.64Q196.82-14.43 198.93-17.75L198.93-17.75L198.18-17.66Q195.92-17.40 195.55-17.40L195.55-17.40L195.37-17.40Q194.80-17.40 194.28-17.63Q193.75-17.85 193.75-18.18Q193.75-18.52 194.03-18.83Q194.32-19.14 194.38-19.32L194.38-19.32Q194.51-19.75 195.40-20.27Q196.29-20.80 196.74-20.83Q197.19-20.86 197.61-20.88Q198.03-20.90 198.54-20.92Q199.06-20.94 199.34-20.96L199.34-20.96L201.09-21.04Q202.73-23.50 203.35-24.20Q203.96-24.90 204.06-24.97Q204.16-25.04 204.45-25.04L204.45-25.04Z"></path>
    <path transform="" stroke="none" d="M202.68-3.91L202.68-3.91L202.66-3.59Q202.66-3.11 203.03-2.75Q203.40-2.40 203.71-2.40L203.71-2.40Q206.05-2.40 207.86-3.11Q209.67-3.81 209.67-4.51L209.67-4.51Q209.67-4.84 209.01-5.09Q208.36-5.33 206.81-5.69Q205.25-6.05 204.55-6.26Q203.85-6.46 203.44-6.64Q203.03-6.82 202.60-7.13L202.60-7.13Q201.68-7.77 201.68-9.05Q201.68-10.33 202.63-11.59Q203.57-12.85 205-13.75Q206.43-14.65 208.07-15.33L208.07-15.33Q211.31-16.68 213.52-16.68L213.52-16.68Q215.68-16.68 216.19-15.74L216.19-15.74Q216.35-15.41 216.35-15L216.35-15L216.35-14.86Q216.35-13.83 215.91-13.24Q215.47-12.66 214.52-12.19Q213.57-11.72 213.02-11.72Q212.46-11.72 212.31-11.80Q212.17-11.88 212.07-12.00Q211.97-12.13 211.83-12.19Q211.68-12.25 211.68-12.48Q211.68-12.71 211.88-12.96Q212.07-13.20 212.15-13.48L212.15-13.48Q210.86-13.42 209.45-12.88Q208.05-12.34 207.04-11.68Q206.04-11.02 205.37-10.41Q204.71-9.80 204.71-9.52Q204.71-9.24 205.61-9.06L205.61-9.06Q209.65-8.26 210.92-7.68Q212.19-7.09 212.68-6.35Q213.16-5.61 213.16-5L213.16-5Q213.16-3.75 212.17-2.64Q211.17-1.52 209.71-0.82L209.71-0.82Q206.56 0.72 204.23 0.72Q201.89 0.72 201.01 0.01Q200.12-0.70 200.12-1.68Q200.12-2.66 200.62-3.49Q201.11-4.32 201.89-4.32Q202.68-4.32 202.68-3.91Z"></path>
    </g>
        </svg>
      </g></svg>