<?xml version="1.0" encoding="utf-8"?>
<!-- Generator: Adobe Illustrator 24.0.1, SVG Export Plug-In . SVG Version: 6.00 Build 0)  -->
<svg version="1.1" id="Layer_1" xmlns="http://www.w3.org/2000/svg" xmlns:xlink="http://www.w3.org/1999/xlink" x="0px" y="0px"
	 viewBox="0 0 5000 1793.5" style="enable-background:new 0 0 5000 1793.5;" xml:space="preserve">
<style type="text/css">
	.st0{fill:#EFE731;}
</style>
<g transform="rotate(0 76.8886 92.69199999999998)">
	<g transform="matrix(1 0 0 1 0 0)">
		<path class="st0" d="M1412.6,1569.6l-7.4,10.7c-1,1.3-1.9,2.2-2.8,2.9c-0.9,0.7-2,1-3.2,1l0,0c-1.5,0-3.2-0.8-4.9-2.4
			c-1.7-1.6-3.9-3.3-6.6-5.1c-2.7-1.8-5.9-3.6-9.7-5.1c-3.8-1.6-8.5-2.4-14.2-2.4l0,0c-5.8,0-10.9,0.9-15.4,2.7
			c-4.5,1.8-8.3,4.3-11.4,7.4c-3.1,3.1-5.5,6.7-7.1,10.9c-1.6,4.2-2.4,8.6-2.4,13.4l0,0c0,4.7,1.1,8.6,3.2,11.8s5,6,8.5,8.3
			c3.5,2.3,7.6,4.3,12.1,6.1c4.6,1.8,9.2,3.6,13.9,5.4c4.7,1.8,9.3,3.9,13.9,6.2c4.6,2.3,8.6,5.1,12.1,8.4c3.5,3.3,6.4,7.4,8.5,12
			s3.2,10.4,3.2,17.1l0,0c0,9.2-1.6,17.9-4.7,26.1s-7.7,15.3-13.6,21.5s-13.1,11-21.4,14.6s-17.8,5.4-28.3,5.4l0,0
			c-11.5,0-21.9-2.3-30.9-6.8s-16.5-10.7-22.4-18.5l0,0l8.9-12c0.7-1,1.6-1.8,2.7-2.4c1.1-0.6,2.3-0.9,3.5-0.9l0,0
			c1.7,0,3.6,1,5.5,3c2,2,4.5,4.3,7.6,6.8s6.9,4.7,11.4,6.8c4.5,2,10.1,3,16.9,3l0,0c6.2,0,11.8-1,16.8-3c5-2,9.2-4.7,12.7-8.3
			s6.2-7.7,8.1-12.7c1.9-4.9,2.8-10.4,2.8-16.3l0,0c0-5-1.1-9.1-3.2-12.4c-2.2-3.3-5-6.1-8.5-8.3s-7.5-4.2-12-5.9s-9.1-3.4-13.8-5.1
			c-4.7-1.7-9.3-3.7-13.8-5.8c-4.5-2.2-8.5-4.9-12-8.3c-3.5-3.3-6.4-7.4-8.5-12.3c-2.2-4.9-3.2-10.9-3.2-18l0,0
			c0-7.9,1.4-15.6,4.3-22.9c2.9-7.3,7-13.8,12.4-19.4s12-10.1,19.8-13.4c7.8-3.3,16.5-5,26.2-5l0,0c9.9,0,18.9,1.9,26.8,5.7
			S1407.4,1563,1412.6,1569.6L1412.6,1569.6z"/>
		<path class="st0" d="M1542.1,1636.5L1542.1,1636.5c0,6-1.2,11.4-3.7,16.4c-2.4,5-6.9,9.5-13.4,13.5c-6.5,4-15.4,7.5-26.8,10.5
			c-11.4,3-26,5.4-43.8,7.2l0,0c-0.1,1-0.1,2-0.1,2.9s0,1.9,0,2.9l0,0c0,12.1,2.6,21.3,7.9,27.7c5.3,6.4,13.2,9.5,23.9,9.5l0,0
			c4.3,0,8.2-0.5,11.6-1.4c3.4-0.9,6.4-2,9.1-3.3c2.7-1.3,5-2.8,7-4.3s3.9-3,5.6-4.3c1.7-1.3,3.3-2.4,4.7-3.3
			c1.4-0.9,2.9-1.4,4.3-1.4l0,0c1.6,0,3.1,0.8,4.5,2.3l0,0l6,7.4c-4.6,4.8-9.1,8.9-13.5,12.2c-4.4,3.4-8.9,6.2-13.5,8.5
			s-9.4,3.9-14.4,4.9s-10.4,1.6-16.2,1.6l0,0c-7.8,0-14.9-1.3-21.1-3.9c-6.2-2.6-11.5-6.3-15.8-11.2c-4.3-4.8-7.7-10.7-10-17.5
			c-2.3-6.9-3.5-14.5-3.5-23l0,0c0-7,0.7-14.1,2.2-21s3.7-13.6,6.5-20c2.8-6.3,6.3-12.2,10.4-17.6s8.8-10.1,14.1-14
			c5.3-3.9,11.1-7,17.5-9.3s13.2-3.4,20.5-3.4l0,0c6.9,0,12.9,1,18,3s9.2,4.5,12.4,7.6c3.2,3.1,5.7,6.5,7.2,10.2
			C1541.3,1629.6,1542.1,1633.2,1542.1,1636.5z M1500.7,1622.6L1500.7,1622.6c-5.7,0-10.9,1.2-15.7,3.5c-4.8,2.3-9,5.6-12.7,9.7
			c-3.7,4.1-6.9,8.9-9.5,14.5c-2.6,5.5-4.6,11.5-6.1,17.9l0,0c13.9-1.7,25-3.7,33.4-5.9c8.4-2.2,14.8-4.6,19.3-7.2
			c4.5-2.6,7.5-5.3,8.9-8.3c1.4-3,2.2-6.1,2.2-9.3l0,0c0-1.6-0.4-3.3-1.1-5.1s-1.9-3.4-3.5-4.8c-1.6-1.4-3.6-2.6-6.2-3.6
			C1507.4,1623,1504.3,1622.6,1500.7,1622.6z"/>
		<path class="st0" d="M1669.3,1719.6L1669.3,1719.6c-4.7,5.1-9.1,9.4-13.3,12.9s-8.4,6.2-12.7,8.2c-4.2,2-8.6,3.5-13.2,4.3
			s-9.4,1.2-14.7,1.2l0,0c-7.9,0-15-1.4-21-4.1s-11.2-6.5-15.3-11.4c-4.1-4.9-7.2-10.8-9.3-17.7c-2.1-6.9-3.2-14.5-3.2-22.8l0,0
			c0-11.1,1.7-21.7,5.2-31.9c3.5-10.2,8.3-19.2,14.5-27.1s13.6-14.1,22.2-18.8c8.6-4.7,18-7,28.3-7l0,0c9,0,16.6,1.6,22.7,4.8
			s11.5,7.9,16.1,14l0,0l-7.6,9.1c-0.5,0.7-1.2,1.3-2,1.8c-0.8,0.5-1.7,0.7-2.7,0.7l0,0c-1.3,0-2.5-0.6-3.7-1.7s-2.8-2.4-4.7-3.8
			c-1.9-1.4-4.4-2.7-7.3-3.8c-2.9-1.1-6.7-1.7-11.3-1.7l0,0c-6.2,0-12.1,1.7-17.7,5.1c-5.5,3.4-10.4,8-14.5,13.9
			c-4.1,5.9-7.4,12.8-9.8,20.8c-2.4,8-3.6,16.6-3.6,25.8l0,0c0,5.6,0.6,10.7,1.9,15.2c1.3,4.6,3.2,8.4,5.7,11.6
			c2.5,3.2,5.6,5.7,9.3,7.4c3.7,1.8,7.9,2.6,12.8,2.6l0,0c4.1,0,7.7-0.4,10.8-1.3c3.2-0.9,6-1.9,8.4-3.2c2.4-1.3,4.6-2.6,6.4-4.1
			c1.8-1.5,3.5-2.9,5-4.1c1.5-1.3,2.8-2.3,4.1-3.2c1.2-0.9,2.5-1.3,3.7-1.3l0,0c1.8,0,3.3,0.8,4.6,2.3l0,0L1669.3,1719.6z"/>
		<path class="st0" d="M1719.6,1744.2h-23.5l16.5-137.2h12c2.5,0,4.5,0.6,6,1.8c1.4,1.2,2.2,3,2.2,5.4l0,0c0,0.4,0,0.9-0.1,1.6
			c0,0.7-0.1,1.4-0.1,2.1c0,0.7-0.1,1.4-0.1,1.9c0,0.5-0.1,0.9-0.1,0.9l0,0l-1.9,24.9c5.9-12.6,12.4-22.4,19.7-29.2
			c7.3-6.9,14.9-10.3,22.9-10.3l0,0c3.8,0,7.6,0.8,11.4,2.4l0,0l-4.3,23.1c-4.2-1.7-8.3-2.6-12.3-2.6l0,0c-8.8,0-16.6,4.3-23.4,12.8
			c-6.9,8.5-12.6,21.5-17.2,38.8l0,0L1719.6,1744.2z"/>
		<path class="st0" d="M1906.1,1636.5L1906.1,1636.5c0,6-1.2,11.4-3.7,16.4c-2.4,5-6.9,9.5-13.4,13.5s-15.4,7.5-26.8,10.5
			c-11.4,3-26,5.4-43.8,7.2l0,0c-0.1,1-0.1,2-0.1,2.9s0,1.9,0,2.9l0,0c0,12.1,2.6,21.3,7.9,27.7c5.3,6.4,13.2,9.5,23.9,9.5l0,0
			c4.3,0,8.2-0.5,11.6-1.4s6.4-2,9.1-3.3c2.7-1.3,5-2.8,7-4.3s3.9-3,5.6-4.3s3.3-2.4,4.7-3.3c1.4-0.9,2.9-1.4,4.3-1.4l0,0
			c1.6,0,3.1,0.8,4.5,2.3l0,0l6,7.4c-4.6,4.8-9.1,8.9-13.5,12.2c-4.4,3.4-8.9,6.2-13.5,8.5c-4.6,2.3-9.4,3.9-14.4,4.9
			c-5,1-10.4,1.6-16.2,1.6l0,0c-7.8,0-14.9-1.3-21.1-3.9c-6.2-2.6-11.5-6.3-15.8-11.2c-4.3-4.8-7.7-10.7-10-17.5s-3.5-14.5-3.5-23
			l0,0c0-7,0.7-14.1,2.2-21s3.7-13.6,6.5-20c2.8-6.3,6.3-12.2,10.4-17.6s8.8-10.1,14.1-14c5.3-3.9,11.1-7,17.5-9.3
			c6.4-2.3,13.2-3.4,20.5-3.4l0,0c6.9,0,12.9,1,18,3c5.1,2,9.2,4.5,12.4,7.6c3.2,3.1,5.7,6.5,7.2,10.2
			C1905.3,1629.6,1906.1,1633.2,1906.1,1636.5z M1864.7,1622.6L1864.7,1622.6c-5.7,0-10.9,1.2-15.7,3.5c-4.8,2.3-9,5.6-12.7,9.7
			c-3.7,4.1-6.9,8.9-9.5,14.5c-2.6,5.5-4.6,11.5-6.1,17.9l0,0c13.9-1.7,25-3.7,33.4-5.9c8.4-2.2,14.8-4.6,19.3-7.2
			c4.5-2.6,7.5-5.3,8.9-8.3s2.2-6.1,2.2-9.3l0,0c0-1.6-0.4-3.3-1.1-5.1c-0.7-1.8-1.9-3.4-3.5-4.8s-3.6-2.6-6.2-3.6
			C1871.3,1623,1868.3,1622.6,1864.7,1622.6z"/>
		<path class="st0" d="M1943.9,1718.4L1943.9,1718.4c0-0.5,0-1.2,0.1-2.1c0-0.9,0.1-2.1,0.3-3.7c0.1-1.6,0.3-3.7,0.6-6.4
			s0.7-6,1.2-10.3l0,0l8.5-68.6h-15.3c-1.2,0-2.1-0.3-2.9-1c-0.8-0.7-1.2-1.7-1.2-3.2l0,0c0-0.3,0-0.8,0.1-1.6s0.2-1.7,0.3-2.8
			s0.3-2.1,0.4-3.2c0.1-1.1,0.2-2.1,0.3-3.1l0,0l21.1-2.8l10.1-42.4c0.4-1.4,1-2.5,2-3.3c1-0.9,2.2-1.3,3.7-1.3l0,0h12.7l-6,47.2h36
			l-2,17.5H1978l-8.3,67.4c-0.5,3.7-0.8,6.7-1,8.9c-0.2,2.3-0.4,4.1-0.5,5.4s-0.2,2.3-0.3,2.8s-0.1,0.9-0.1,1.2l0,0
			c0,4.6,1.1,8,3.2,10.2c2.1,2.2,5,3.3,8.7,3.3l0,0c2.3,0,4.4-0.3,6.2-1c1.8-0.7,3.4-1.4,4.7-2.2s2.4-1.6,3.3-2.2
			c0.9-0.7,1.7-1,2.4-1l0,0c0.7,0,1.3,0.2,1.7,0.5c0.4,0.4,0.8,0.9,1.3,1.8l0,0l5,11.5c-4.3,3.9-9.3,6.9-15,9.1
			c-5.6,2.2-11.3,3.3-17,3.3l0,0c-8.7,0-15.7-2.4-20.7-7.2C1946.7,1734.4,1944.1,1727.5,1943.9,1718.4z"/>
		<path class="st0" d="M2129.9,1620.4l-6.1,8.7c-0.7,1.1-1.4,1.9-2.2,2.4c-0.7,0.5-1.6,0.7-2.7,0.7l0,0c-1.3,0-2.6-0.5-4.1-1.5
			c-1.5-1-3.3-2.1-5.4-3.3s-4.7-2.3-7.8-3.4c-3.1-1-6.8-1.6-11.1-1.6l0,0c-4.1,0-7.8,0.6-11.1,1.7s-6.2,2.7-8.7,4.7s-4.3,4.3-5.6,7
			c-1.3,2.7-2,5.5-2,8.5l0,0c0,4.2,1.4,7.6,4.2,10.2c2.8,2.5,6.3,4.7,10.6,6.6c4.2,1.8,8.8,3.6,13.7,5.3c4.9,1.7,9.5,3.9,13.7,6.5
			s7.8,6,10.6,10c2.8,4.1,4.2,9.3,4.2,15.8l0,0c0,6.3-1.2,12.4-3.7,18.1c-2.5,5.8-6,10.8-10.7,15.2c-4.6,4.4-10.2,7.9-16.8,10.5
			c-6.5,2.6-13.9,3.9-22,3.9l0,0c-8.7,0-16.5-1.6-23.2-4.7c-6.7-3.1-12.2-7.1-16.4-12l0,0l6-9.2c0.7-1.2,1.6-2.1,2.6-2.7
			c1-0.6,2.3-0.9,3.8-0.9l0,0c1.4,0,2.9,0.6,4.3,1.9c1.4,1.3,3.2,2.7,5.4,4.3c2.2,1.6,4.9,3,8.2,4.3s7.5,1.9,12.5,1.9l0,0
			c4.4,0,8.4-0.7,12-2c3.6-1.4,6.6-3.2,9.1-5.4c2.5-2.3,4.4-4.9,5.7-7.9c1.3-3,2-6.2,2-9.7l0,0c0-4.6-1.4-8.3-4.2-11
			c-2.8-2.7-6.3-5-10.6-6.8c-4.2-1.8-8.8-3.5-13.7-5.1s-9.4-3.6-13.7-6.1s-7.8-5.7-10.6-9.7c-2.8-4-4.2-9.2-4.2-15.8l0,0
			c0-5.8,1.2-11.3,3.5-16.7s5.6-10.1,9.9-14.3s9.6-7.5,15.8-9.9s13.1-3.7,20.9-3.7l0,0c8.2,0,15.4,1.4,21.7,4.1
			S2125.4,1615.7,2129.9,1620.4L2129.9,1620.4z"/>
		<path class="st0" d="M2789.3,2371.5"/>
		<path class="st0" d="M2265.7,1727.3L2265.7,1727.3c6.6,0,12.6-1.8,18-5.4s10-8.4,13.8-14.4s6.7-12.9,8.8-20.8s3.1-16.1,3.1-24.6
			l0,0c0-12.6-2.5-22.2-7.4-28.6c-5-6.4-12.1-9.6-21.5-9.6l0,0c-6.7,0-12.7,1.8-18.1,5.3c-5.4,3.6-9.9,8.3-13.7,14.3
			s-6.7,12.9-8.8,20.8s-3.1,16.1-3.1,24.6l0,0c0,12.6,2.5,22.2,7.4,28.6C2249,1724.1,2256.2,1727.3,2265.7,1727.3z M2263.5,1746.1
			L2263.5,1746.1c-7.5,0-14.3-1.3-20.6-3.9c-6.2-2.6-11.6-6.3-16.1-11.2s-8-10.8-10.6-17.9c-2.5-7-3.8-15.1-3.8-24.1l0,0
			c0-11.5,1.8-22.4,5.4-32.6c3.6-10.2,8.5-19.1,14.8-26.8s13.7-13.7,22.2-18.1s17.7-6.6,27.7-6.6l0,0c7.5,0,14.3,1.3,20.6,3.9
			c6.2,2.6,11.6,6.3,16.1,11.2s8,10.8,10.6,17.9c2.5,7.1,3.8,15.1,3.8,24l0,0c0,11.5-1.8,22.3-5.4,32.5
			c-3.6,10.2-8.5,19.1-14.8,26.8s-13.7,13.7-22.3,18.2C2282.6,1743.9,2273.4,1746.1,2263.5,1746.1z"/>
		<path class="st0" d="M2435.8,1627.2h-33.3l-13.7,112.6l-6.2,28c-1.5,6.8-5.7,10.2-12.4,10.2l0,0h-9.5l18.3-150.4l-13.5-1.8
			c-1.5-0.5-2.8-1.1-3.7-1.9s-1.4-2-1.4-3.5l0,0l1.1-10.6h19.6l1.6-13.3c1-7.8,3-14.8,5.9-20.9c2.9-6.1,6.6-11.2,11.1-15.4
			c4.5-4.2,9.6-7.4,15.3-9.5s11.9-3.2,18.5-3.2l0,0c5.6,0,10.7,0.9,15.3,2.7l0,0l-2.3,12.5c-0.2,1.3-0.8,2.1-1.8,2.4s-2.4,0.5-4,0.5
			l0,0c-0.8,0-1.7,0-2.6-0.1c-0.9,0-2-0.1-3-0.1l0,0c-3.9,0-7.5,0.6-10.8,1.7c-3.3,1.1-6.2,3-8.7,5.5c-2.5,2.5-4.6,5.8-6.4,9.9
			c-1.7,4.1-2.9,9-3.7,14.9l0,0l-1.6,12.6h34.2L2435.8,1627.2z"/>
		<path class="st0" d="M2789.3,2371.5"/>
		<path class="st0" d="M2584.6,1744.2h-63.9l23.9-193.9h57.4c10.1,0,18.8,1,26,3c7.3,2,13.2,4.9,17.9,8.7c4.7,3.7,8.2,8.3,10.4,13.7
			c2.3,5.4,3.4,11.3,3.4,17.9l0,0c0,5.8-0.8,11.3-2.5,16.5c-1.7,5.2-4.2,10.1-7.5,14.5c-3.3,4.4-7.5,8.3-12.5,11.8
			c-5,3.4-10.8,6.2-17.5,8.3l0,0c11.6,2.6,20.4,7.2,26.2,13.7s8.8,14.9,8.8,25l0,0c0,8.9-1.6,17.1-4.8,24.6
			c-3.2,7.4-7.8,13.9-13.9,19.3c-6,5.4-13.4,9.6-22.1,12.6C2605.4,1742.7,2595.5,1744.2,2584.6,1744.2L2584.6,1744.2z
			 M2595.1,1655.6h-38l-8.5,68.6h38.2c7.1,0,13.4-0.9,18.8-2.8c5.4-1.9,9.9-4.6,13.5-8.1c3.6-3.5,6.3-7.8,8.1-12.7
			c1.8-5,2.7-10.6,2.7-16.8l0,0c0-8.6-2.9-15.4-8.7-20.5S2606.7,1655.6,2595.1,1655.6L2595.1,1655.6z M2567.6,1570.2l-8.4,67.5h31.3
			c7.3,0,13.7-1,19.1-2.9s10-4.6,13.7-8.1c3.7-3.5,6.4-7.6,8.2-12.5c1.8-4.9,2.7-10.2,2.7-16.1l0,0c0-9.3-2.8-16.3-8.4-20.9
			s-14.3-7-26-7l0,0H2567.6z"/>
		<path class="st0" d="M2806.4,1611.6l-16.4,132.6h-12.4c-3.2,0-5.3-0.8-6.4-2.4c-1.1-1.6-1.7-3.6-1.7-6l0,0l2.4-27.7
			c-3.2,5.8-6.7,11-10.5,15.7c-3.7,4.7-7.7,8.7-11.9,12c-4.2,3.3-8.6,5.8-13.2,7.6c-4.6,1.8-9.4,2.7-14.3,2.7l0,0
			c-5.4,0-10.3-1.1-14.7-3.2c-4.4-2.1-8.2-5.2-11.3-9.3c-3.1-4.1-5.5-9.2-7.2-15.2s-2.6-12.9-2.6-20.6l0,0c0-8.1,1-16,3-23.8
			c2-7.7,4.9-15,8.7-21.9c3.7-6.9,8.2-13.2,13.5-18.9c5.2-5.7,11.1-10.7,17.5-14.9c6.4-4.2,13.4-7.4,20.8-9.7
			c7.4-2.3,15.2-3.5,23.3-3.5l0,0c5.9,0,11.6,0.5,17.1,1.4C2795.5,1607.6,2801,1609.2,2806.4,1611.6L2806.4,1611.6z M2731,1726.1
			L2731,1726.1c4.4,0,8.8-1.4,13-4.1c4.2-2.8,8.3-6.6,12-11.4c3.8-4.9,7.3-10.7,10.6-17.4s6.2-14.1,8.7-22.1l0,0l5.8-47.1
			c-2-0.5-3.9-0.7-5.9-0.9c-1.9-0.1-3.9-0.2-5.8-0.2l0,0c-5.4,0-10.6,0.9-15.7,2.6s-9.8,4.2-14.2,7.4c-4.4,3.2-8.4,6.9-12,11.3
			c-3.6,4.4-6.7,9.2-9.3,14.4c-2.6,5.2-4.6,10.8-6,16.7c-1.4,5.9-2.2,12-2.2,18.2l0,0C2710.2,1715.2,2717.1,1726.1,2731,1726.1z"/>
		<path class="st0" d="M2937.9,1719.6L2937.9,1719.6c-4.7,5.1-9.1,9.4-13.3,12.9s-8.4,6.2-12.7,8.2s-8.6,3.5-13.2,4.3
			s-9.4,1.2-14.7,1.2l0,0c-7.9,0-15-1.4-21-4.1s-11.2-6.5-15.3-11.4c-4.1-4.9-7.2-10.8-9.3-17.7s-3.2-14.5-3.2-22.8l0,0
			c0-11.1,1.7-21.7,5.2-31.9c3.5-10.2,8.3-19.2,14.5-27.1c6.2-7.8,13.6-14.1,22.2-18.8c8.6-4.7,18-7,28.3-7l0,0
			c9,0,16.6,1.6,22.7,4.8s11.5,7.9,16.1,14l0,0l-7.6,9.1c-0.5,0.7-1.2,1.3-2,1.8c-0.8,0.5-1.7,0.7-2.7,0.7l0,0
			c-1.3,0-2.5-0.6-3.7-1.7c-1.2-1.1-2.8-2.4-4.7-3.8c-1.9-1.4-4.4-2.7-7.3-3.8c-2.9-1.1-6.7-1.7-11.3-1.7l0,0
			c-6.2,0-12.1,1.7-17.7,5.1c-5.5,3.4-10.4,8-14.5,13.9c-4.1,5.9-7.4,12.8-9.8,20.8s-3.6,16.6-3.6,25.8l0,0c0,5.6,0.6,10.7,1.9,15.2
			s3.2,8.4,5.7,11.6c2.5,3.2,5.6,5.7,9.3,7.4c3.7,1.8,7.9,2.6,12.8,2.6l0,0c4.1,0,7.7-0.4,10.8-1.3c3.2-0.9,6-1.9,8.4-3.2
			s4.6-2.6,6.4-4.1c1.8-1.5,3.5-2.9,5-4.1s2.8-2.3,4.1-3.2c1.2-0.9,2.5-1.3,3.7-1.3l0,0c1.8,0,3.3,0.8,4.6,2.3l0,0L2937.9,1719.6z"
			/>
		<path class="st0" d="M2990.2,1544.9h23.7l-14.3,117.3h4.2c1.8,0,3.3-0.2,4.5-0.7s2.5-1.5,3.9-3l0,0l45.3-46.4
			c1.4-1.4,2.8-2.6,4.2-3.5c1.4-0.9,3.1-1.4,5.3-1.4l0,0h21.2l-52.9,53.7c-1.4,1.4-2.7,2.8-4,4c-1.3,1.2-2.7,2.3-4.3,3.2l0,0
			c1.4,1.1,2.7,2.3,3.7,3.8s2,3,3,4.7l0,0l41.1,67.7H3054c-2,0-3.6-0.4-4.8-1.1s-2.3-1.9-3.3-3.7l0,0l-34.9-56.2
			c-1.2-1.8-2.3-3-3.5-3.7c-1.1-0.6-3-0.9-5.5-0.9l0,0h-4.6l-8,65.5h-23.8L2990.2,1544.9z"/>
		<path class="st0" d="M3199.6,1620.4l-6.1,8.7c-0.7,1.1-1.4,1.9-2.2,2.4c-0.7,0.5-1.6,0.7-2.7,0.7l0,0c-1.3,0-2.6-0.5-4.1-1.5
			c-1.5-1-3.3-2.1-5.4-3.3s-4.7-2.3-7.8-3.4c-3.1-1-6.8-1.6-11.1-1.6l0,0c-4.1,0-7.8,0.6-11.1,1.7s-6.2,2.7-8.7,4.7
			c-2.4,2-4.3,4.3-5.6,7c-1.3,2.7-2,5.5-2,8.5l0,0c0,4.2,1.4,7.6,4.2,10.2c2.8,2.5,6.3,4.7,10.6,6.6c4.2,1.8,8.8,3.6,13.7,5.3
			c4.9,1.7,9.5,3.9,13.7,6.5s7.8,6,10.6,10c2.8,4.1,4.2,9.3,4.2,15.8l0,0c0,6.3-1.2,12.4-3.7,18.1c-2.5,5.8-6,10.8-10.7,15.2
			c-4.6,4.4-10.2,7.9-16.8,10.5c-6.5,2.6-13.9,3.9-22,3.9l0,0c-8.8,0-16.5-1.6-23.2-4.7c-6.7-3.1-12.2-7.1-16.4-12l0,0l6-9.2
			c0.7-1.2,1.6-2.1,2.6-2.7c1-0.6,2.3-0.9,3.8-0.9l0,0c1.4,0,2.9,0.6,4.3,1.9s3.2,2.7,5.4,4.3s4.9,3,8.2,4.3s7.5,1.9,12.5,1.9l0,0
			c4.4,0,8.4-0.7,12-2c3.6-1.4,6.6-3.2,9.1-5.4c2.5-2.3,4.4-4.9,5.7-7.9c1.3-3,2-6.2,2-9.7l0,0c0-4.6-1.4-8.3-4.2-11
			c-2.8-2.7-6.3-5-10.6-6.8c-4.2-1.8-8.8-3.5-13.7-5.1c-4.9-1.6-9.4-3.6-13.7-6.1s-7.8-5.7-10.6-9.7c-2.8-4-4.2-9.2-4.2-15.8l0,0
			c0-5.8,1.2-11.3,3.5-16.7c2.3-5.4,5.6-10.1,9.9-14.3s9.6-7.5,15.8-9.9c6.2-2.5,13.1-3.7,20.9-3.7l0,0c8.2,0,15.4,1.4,21.7,4.1
			S3195.1,1615.7,3199.6,1620.4L3199.6,1620.4z"/>
		<path class="st0" d="M3233.3,1718.4L3233.3,1718.4c0-0.5,0-1.2,0.1-2.1c0-0.9,0.1-2.1,0.3-3.7c0.1-1.6,0.3-3.7,0.6-6.4
			c0.3-2.6,0.7-6,1.2-10.3l0,0l8.5-68.6h-15.3c-1.2,0-2.1-0.3-2.9-1c-0.8-0.7-1.2-1.7-1.2-3.2l0,0c0-0.3,0-0.8,0.1-1.6
			c0.1-0.8,0.2-1.7,0.3-2.8c0.1-1,0.3-2.1,0.4-3.2c0.1-1.1,0.2-2.1,0.3-3.1l0,0l21.1-2.8l10.1-42.4c0.4-1.4,1-2.5,2-3.3
			c1-0.9,2.2-1.3,3.7-1.3l0,0h12.7l-6,47.2h36l-2,17.5h-36.1l-8.3,67.4c-0.5,3.7-0.8,6.7-1,8.9c-0.2,2.3-0.4,4.1-0.5,5.4
			c-0.1,1.4-0.2,2.3-0.3,2.8c0,0.5-0.1,0.9-0.1,1.2l0,0c0,4.6,1.1,8,3.2,10.2c2.1,2.2,5,3.3,8.7,3.3l0,0c2.3,0,4.4-0.3,6.2-1
			c1.8-0.7,3.4-1.4,4.7-2.2c1.3-0.8,2.4-1.6,3.3-2.2c0.9-0.7,1.7-1,2.4-1l0,0c0.7,0,1.3,0.2,1.7,0.5c0.4,0.4,0.8,0.9,1.3,1.8l0,0
			l5,11.5c-4.3,3.9-9.3,6.9-15,9.1c-5.6,2.2-11.3,3.3-17,3.3l0,0c-8.8,0-15.7-2.4-20.7-7.2
			C3236.1,1734.4,3233.5,1727.5,3233.3,1718.4z"/>
		<path class="st0" d="M3442.1,1611.6l-16.4,132.6h-12.4c-3.2,0-5.3-0.8-6.4-2.4s-1.7-3.6-1.7-6l0,0l2.4-27.7
			c-3.2,5.8-6.7,11-10.5,15.7c-3.7,4.7-7.7,8.7-11.9,12s-8.6,5.8-13.2,7.6c-4.6,1.8-9.4,2.7-14.3,2.7l0,0c-5.4,0-10.3-1.1-14.7-3.2
			c-4.4-2.1-8.2-5.2-11.3-9.3c-3.1-4.1-5.5-9.2-7.2-15.2s-2.6-12.9-2.6-20.6l0,0c0-8.1,1-16,3-23.8c2-7.7,4.9-15,8.7-21.9
			c3.7-6.9,8.2-13.2,13.5-18.9c5.2-5.7,11.1-10.7,17.5-14.9c6.4-4.2,13.4-7.4,20.8-9.7s15.2-3.5,23.3-3.5l0,0
			c5.9,0,11.6,0.5,17.1,1.4S3436.7,1609.2,3442.1,1611.6L3442.1,1611.6z M3366.7,1726.1L3366.7,1726.1c4.4,0,8.8-1.4,13-4.1
			c4.2-2.8,8.3-6.6,12-11.4s7.3-10.7,10.6-17.4c3.3-6.7,6.2-14.1,8.7-22.1l0,0l5.8-47.1c-2-0.5-3.9-0.7-5.9-0.9
			c-1.9-0.1-3.9-0.2-5.8-0.2l0,0c-5.4,0-10.6,0.9-15.7,2.6c-5.1,1.8-9.8,4.2-14.2,7.4c-4.4,3.2-8.4,6.9-12,11.3
			c-3.6,4.4-6.7,9.2-9.3,14.4c-2.6,5.2-4.6,10.8-6,16.7s-2.2,12-2.2,18.2l0,0C3345.9,1715.2,3352.8,1726.1,3366.7,1726.1z"/>
		<path class="st0" d="M3573.2,1645.2L3573.2,1645.2c-0.1,4.5-0.7,8.6-1.7,12.2s-2.3,6.9-3.9,10c-1.5,3.1-3.2,6-5,8.7
			c-1.8,2.7-3.5,5.4-5,8.1s-2.8,5.5-3.9,8.3c-1,2.8-1.6,5.9-1.6,9.3l0,0c0,3.8,0.9,7.2,2.8,10.3c1.8,3.1,3.9,6.2,6.1,9.5
			s4.2,6.8,6.1,10.6c1.8,3.8,2.8,8.4,2.8,13.6l0,0c0,6.4-1.5,12.5-4.5,18.2s-7.2,10.8-12.7,15.2c-5.5,4.4-12.2,7.9-20.1,10.5
			c-7.9,2.6-16.8,3.9-26.6,3.9l0,0c-7.8,0-15-0.8-21.4-2.4c-6.4-1.6-12-3.9-16.5-6.9c-4.6-3-8.1-6.6-10.6-10.8
			c-2.5-4.2-3.7-8.8-3.7-13.9l0,0c0-7.1,1.8-13.3,5.5-18.4c3.7-5.1,8.6-9.4,14.6-12.7c6-3.3,12.9-5.8,20.6-7.3
			c7.7-1.5,15.6-2.3,23.6-2.3l0,0c3.2,0,6.5,0.1,9.7,0.4c3.2,0.3,6.4,0.6,9.5,1.1l0,0c-0.8-1.7-1.5-3.5-2-5.3
			c-0.5-1.8-0.7-3.9-0.7-6l0,0c0-2.8,0.4-5.7,1.3-8.7c0.9-3,2.3-6.3,4.3-10l0,0c-3.4,2.3-7.3,4.2-11.5,5.4
			c-4.2,1.3-9.1,1.9-14.5,1.9l0,0c-5.2,0-10.1-0.9-14.7-2.6c-4.6-1.7-8.5-4.2-12-7.6c-3.4-3.3-6.1-7.5-8.1-12.5c-2-5-3-10.8-3-17.5
			l0,0c0-6.5,1.2-12.9,3.6-19.2c2.4-6.3,5.9-11.9,10.5-16.8c4.6-4.9,10.3-8.9,17-11.8s14.6-4.5,23.4-4.5l0,0c9.9,0,18.5,2.3,25.8,7
			l0,0h37.2l-1.1,8c-0.2,1.5-0.7,2.9-1.6,4.2s-2.1,2-3.9,2.3l0,0l-17,3c0.8,2.3,1.4,4.8,1.9,7.4S3573.2,1642.3,3573.2,1645.2z
			 M3521,1682.4L3521,1682.4c4.9,0,9.2-1.1,12.9-3.2c3.7-2.1,6.8-4.9,9.4-8.4c2.6-3.5,4.5-7.4,5.9-11.7s2-8.7,2-13.1l0,0
			c0-7.9-2-13.9-6-18s-9.5-6.1-16.6-6.1l0,0c-4.9,0-9.2,1-12.9,3c-3.7,2-6.8,4.6-9.3,8c-2.5,3.3-4.4,7.1-5.8,11.4
			c-1.3,4.2-2,8.7-2,13.3l0,0c0,8.1,2,14.3,5.9,18.5C3508.5,1680.2,3513.9,1682.4,3521,1682.4z M3548,1747.6L3548,1747.6
			c0-2.3-0.2-4.5-0.7-6.6c-0.5-2-1-3.9-1.8-5.8l0,0c-4.9-0.8-9.4-1.4-13.7-1.8c-4.3-0.4-8.3-0.5-12.1-0.5l0,0
			c-7.4,0-13.8,0.7-19.2,2s-9.9,3-13.4,5.2c-3.5,2.2-6.1,4.7-7.8,7.5c-1.7,2.8-2.6,5.8-2.6,8.9l0,0c0,6.5,2.7,11.5,8.2,14.9
			s13.2,5.1,23.2,5.1l0,0c6,0,11.4-0.8,16.3-2.4c4.9-1.6,9.1-3.7,12.6-6.3c3.5-2.6,6.2-5.7,8.1-9.2S3548,1751.5,3548,1747.6z"/>
		<path class="st0" d="M3718.5,1636.5L3718.5,1636.5c0,6-1.2,11.4-3.7,16.4c-2.4,5-6.9,9.5-13.4,13.5c-6.5,4-15.4,7.5-26.8,10.5
			c-11.4,3-26,5.4-43.8,7.2l0,0c-0.1,1-0.1,2-0.1,2.9s0,1.9,0,2.9l0,0c0,12.1,2.6,21.3,7.9,27.7c5.3,6.4,13.2,9.5,23.9,9.5l0,0
			c4.3,0,8.2-0.5,11.6-1.4c3.4-0.9,6.4-2,9.1-3.3c2.7-1.3,5-2.8,7-4.3s3.9-3,5.6-4.3s3.3-2.4,4.7-3.3c1.4-0.9,2.9-1.4,4.3-1.4l0,0
			c1.6,0,3.1,0.8,4.5,2.3l0,0l6,7.4c-4.6,4.8-9.1,8.9-13.5,12.2c-4.4,3.4-8.9,6.2-13.5,8.5s-9.4,3.9-14.4,4.9
			c-5,1-10.4,1.6-16.2,1.6l0,0c-7.8,0-14.9-1.3-21.1-3.9c-6.2-2.6-11.5-6.3-15.8-11.2c-4.3-4.8-7.7-10.7-10-17.5
			c-2.3-6.9-3.5-14.5-3.5-23l0,0c0-7,0.7-14.1,2.2-21s3.7-13.6,6.5-20c2.8-6.3,6.3-12.2,10.4-17.6s8.8-10.1,14.1-14
			c5.3-3.9,11.1-7,17.5-9.3c6.4-2.3,13.2-3.4,20.5-3.4l0,0c6.9,0,12.9,1,18,3s9.2,4.5,12.4,7.6c3.2,3.1,5.7,6.5,7.2,10.2
			C3717.7,1629.6,3718.5,1633.2,3718.5,1636.5z M3677.1,1622.6L3677.1,1622.6c-5.7,0-10.9,1.2-15.7,3.5c-4.8,2.3-9,5.6-12.7,9.7
			c-3.7,4.1-6.9,8.9-9.5,14.5c-2.6,5.5-4.6,11.5-6.1,17.9l0,0c13.9-1.7,25-3.7,33.4-5.9c8.4-2.2,14.8-4.6,19.3-7.2
			c4.5-2.6,7.5-5.3,8.9-8.3s2.2-6.1,2.2-9.3l0,0c0-1.6-0.4-3.3-1.1-5.1c-0.7-1.8-1.9-3.4-3.5-4.8c-1.6-1.4-3.6-2.6-6.2-3.6
			C3683.8,1623,3680.7,1622.6,3677.1,1622.6z"/>
	</g>
</g>
<g transform="rotate(-5 0 25.809799999999996)">
	<g transform="matrix(1 0 0 1 0 0)">
		<path class="st0" d="M592.7,854.2L592.7,854.2c8.2,0,12.3,10.8,12.3,32.3c0,21.4-1.4,35.7-4.2,42.9l0,0c-9,23.4-30,49.4-63.1,78.2
			c-33.1,28.9-69.4,53.4-108.9,73.4c-39.5,20.1-71.9,30.2-97.3,30.2l0,0c-12.1,0-22.3-4.6-30.6-13.9c-8.2-9.4-12.3-21.7-12.3-36.7
			l0,0c0-26.9,15.4-68.1,46.2-123.5c30.8-55.3,68.1-113,111.9-173.2l0,0c-72.9,84.7-124.5,141.8-154.8,171.6
			c-30.3,29.6-57.4,54.9-81.3,75.9c-24,20.9-45.5,37.7-64.5,50.4l0,0c-45.3,30-81.3,45-108,45c-26.5,0-45.3-7.4-56.6-22.1
			c-11.1-14.7-16.7-31-16.7-48.8l0,0c0-52.3,30.6-125.8,91.9-220.5c61.1-94.7,117.4-172.2,168.8-232.4l0,0
			c-43.5,38.4-73.5,57.6-90.1,57.6c-16.4,0-28.7-5-36.9-15.1c-8.2-10.2-12.3-21.7-12.3-34.6c0-12.8,6.1-24.9,18.3-36.2
			c12.1-11.3,20.9-16.9,26.5-16.9c5.6,0,8.4,0.4,8.4,1.2c0,0.9-2.2,4.2-6.7,9.8c-4.6,5.7-7,9.6-7,11.6c0,2.2,2,3.3,6,3.3l0,0
			c11.8,0,37.5-11.9,77.1-35.8c39.6-24,73.4-47.3,101.5-69.9l0,0c7.6-6.3,16.3-9.5,26.2-9.5c9.8,0,19.2,2.4,28.3,7.2l0,0
			c0.6-1.5,3.2-1.2,7.7,0.9c4.5,2.2,9,5.5,13.5,10c4.6,4.5,7,8.7,7,12.8c0,3.9-1.2,7.5-3.7,10.9l0,0
			C263.5,652.7,184.5,758.6,152.1,808l0,0c-65.6,100-98.4,165-98.4,195l0,0c0,10.5,4.4,15.8,13.2,15.8c9,0,34.2-16.9,75.7-50.8l0,0
			c113.6-92.6,272.9-255.8,477.8-489.6l0,0c8.2-9.4,15.9-13.9,23.2-13.2l0,0h3.9c1.2,0,4.6-0.5,10.2-1.6c5.6-1.1,14.8-1.6,27.6-1.6
			l0,0c30.2,0,45.3,5.6,45.3,16.9l0,0c0,4.8-4.5,13.2-13.5,25.3c-8.8,12.1-27.3,38.1-55.5,78c-28.2,39.9-63.1,90.5-104.9,151.8
			c-41.9,61.4-78.1,117.9-108.4,169.2c-30.3,51.4-45.5,84-45.5,98l0,0c0,0.3,0.5,0.5,1.6,0.5c0.9,0,5.6-2.2,14.2-6.5l0,0
			c26-13.6,56.5-35.2,91.5-64.8c34.8-29.6,56.9-49.7,66.2-60.4C585.4,859.4,590.9,854.2,592.7,854.2z"/>
		<path class="st0" d="M830,1035L830,1035c0,13.3,9.1,20,27.2,20l0,0c9.6,0,21.7-4.8,36.4-14.4c14.7-9.8,27.9-20.4,39.7-31.8l0,0
			c31.4-31.1,49.2-46.7,53.4-46.7l0,0c7.9,0,11.8,11.3,11.8,33.9c0,22.8-7.1,38.3-21.4,46.7l0,0c-43.2,39-76.5,62.8-100.1,71.3l0,0
			c-13.3,4.5-28,6.6-44.1,6.3c-15.9-0.3-31.8-7.2-47.6-20.7c-15.6-13.6-23.4-30.2-23.4-49.7s5.1-41.6,15.3-66.4
			c10.2-24.9,20.7-46.2,31.6-63.8c10.7-17.6,23.9-38.1,39.7-61.5c15.6-23.5,23.9-38.1,24.8-43.9l0,0l-0.9-0.9
			c-9.9,0.9-34.6,20.6-74.1,59c-39.5,38.4-72,71.8-97.7,100.3c-25.7,28.3-56.4,66.2-92.2,113.8l0,0c-9.9,13-18,19.5-24.4,19.5
			s-14.9-2-25.5-6c-10.8-4.2-17.4-7.2-19.7-9.1c-2.5-1.7-3.7-4.4-3.7-8.1c0-3.6,1.1-8,3.3-13.2c2-5.4,4-9.8,6-13.2
			c2-3.4,5.3-8.7,9.8-16c4.5-7.3,13.5-22.7,26.9-46.2c13.5-23.4,34.1-58.3,62-104.9c27.9-46.4,44.5-74.5,49.9-84.3l0,0
			c11.5-20,20.8-34.4,28.1-43.4l0,0c13.6-17.3,36.6-26,69-26l0,0c7.3,0,10.9,4.6,10.9,13.7l0,0c0,14.2-13.2,40.9-39.5,80.1l0,0
			l-19,28.8c52.3-58,96.4-94.8,132.3-110.3l0,0c17.5-7.6,33.3-11.4,47.4-11.4s25.3,3.8,33.7,11.4c8.2,7.6,12.3,15.9,12.3,25.1
			c0,9.3-3.2,20.4-9.5,33.2c-6.3,12.8-12.8,24.3-19.3,34.4c-6.5,10.2-15,23-25.5,38.3c-10.5,15.5-16.3,23.9-17.2,25.3
			c-0.9,1.4-3.3,5-7.2,10.9c-3.7,5.9-6.5,10.1-8.4,12.8c-1.7,2.8-4.7,7.6-9.1,14.4c-4.2,6.8-7.6,12.5-10.2,16.9
			c-2.5,4.5-5.6,10.1-9.5,16.7c-3.7,6.7-6.7,12.5-9.1,17.4c-2.2,4.8-4.5,10.1-7,15.8l0,0C832.1,1019.3,830,1028.1,830,1035z"/>
		<path class="st0" d="M1005.7,1014.1L1005.7,1014.1l-0.5,7.4c0,7.4,2.9,13.9,8.8,19.5c5.7,5.4,11,8.1,15.8,8.1l0,0
			c36.2,0,68.3-5.5,96.3-16.5c28-10.8,42-21.7,42-32.5l0,0c0-5.1-5.1-9.6-15.3-13.5c-10.1-3.7-27.2-8.4-51.3-13.9
			c-24-5.6-41.4-10-52.2-13.2c-10.8-3.1-19.4-6-25.8-8.8c-6.3-2.8-12.8-6.6-19.5-11.4l0,0c-14.2-9.9-21.4-24.8-21.4-44.6
			c0-19.8,7.3-39.5,21.8-59c14.7-19.5,33.1-36.2,55.3-50.1c22-13.9,45.7-26.2,71-36.7l0,0c50.3-20.9,92.5-31.3,126.5-31.3l0,0
			c33.6,0,54.3,7.3,62.2,21.8l0,0c2.5,5.1,3.7,10.8,3.7,17.2l0,0v3.3c0,15.9-3.4,28.5-10.2,37.6c-6.8,9-17.6,17.1-32.3,24.4
			c-14.7,7.3-26.3,10.9-34.8,10.9c-8.7,0-14.2-0.6-16.5-1.9c-2.2-1.2-4-2.8-5.6-4.6c-1.5-2-3.5-3.5-5.8-4.4
			c-2.2-0.9-3.3-3.2-3.3-6.7c0-3.6,1.5-7.3,4.4-11.1c3.1-3.7,5.3-7.7,6.5-12.1l0,0c-20,0.9-40.9,5.6-62.7,13.9
			c-21.8,8.4-40.5,17.6-55.9,27.9c-15.6,10.2-28.6,20-38.8,29.5c-10.2,9.4-15.3,16.3-15.3,20.7c0,4.3,6.9,7.9,20.7,10.7l0,0
			c62.7,12.4,103.9,23.1,123.5,32c19.7,9.1,33.2,19.4,40.6,30.9c7.6,11.5,11.4,21.9,11.4,31.3l0,0c0,19.3-7.7,37.6-23,54.8
			c-15.5,17.3-34.5,31.4-57.1,42.3l0,0c-48.8,23.8-91.2,35.8-127.2,35.8c-36.2,0-61.2-5.5-75-16.5c-13.6-11-20.4-24.1-20.4-39.2
			c0-15.2,3.8-29.2,11.4-42c7.7-12.8,17.6-19.3,29.7-19.3S1005.7,1007.8,1005.7,1014.1z"/>
		<path class="st0" d="M1609.3,765.7L1609.3,765.7c0,20-8.1,37.5-24.4,52.7c-16.1,15-34.4,22.5-55,22.5l0,0c-6.7,0-11-1.5-13-4.6
			c-2.2-3.3-3.3-7.4-3.3-12.5s0.6-10.1,1.9-14.9l0,0c-11,3.6-23.1,9.1-36.4,16.7c-13.2,7.6-29.4,18.7-48.8,33.4
			c-19.3,14.9-29,25.9-29,33.2l0,0c0,2.5,3.5,3.7,10.4,3.7c7.1,0,18.1-2.6,33-7.7c14.9-5,25.2-7.4,31.1-7.4c5.9,0,9.8,0.3,11.6,0.9
			l0,0c3.9,2.2,8,6.8,12.5,13.9c4.6,7.1,7,12.7,7,16.7s-3.9,9.4-11.8,16c-7.9,6.7-16.8,11.8-26.7,15.3c-10.1,3.4-16.7,6-20,7.9l0,0
			c-63.8,35.6-95.6,60-95.6,73.4l0,0c0,23.7,20,35.5,60.1,35.5l0,0c25.7,0,51.5-8.2,77.5-24.6l0,0c22.1-13.9,42-28,59.7-42.3
			c17.6-14.4,28.9-23.3,33.7-26.7c4.6-3.3,8.2-4.9,10.7-4.9l0,0c7.7,0,11.6,8.7,11.6,26.2s-1,29-3,34.6c-2.2,5.7-8.2,12.6-18.1,20.7
			l0,0c-64.7,52.6-125.9,78.9-183.6,78.9l0,0c-31,0-55.6-4.3-74.1-12.8l0,0c-33.9-15.3-50.8-38.8-50.8-70.6l0,0
			c0-41.8,28.9-73.4,86.6-94.7l0,0c-11.5-5.3-18.8-11.8-22.1-19.7c-3.4-8-5.1-20.9-5.1-38.5c0-17.8,8.3-36.6,24.8-56.4
			c16.4-19.8,36.5-36.1,60.4-48.8l0,0c53.2-28.6,100.8-42.9,142.5-42.9l0,0c9.9,0,20,2.4,30.4,7.2
			C1604.2,750.1,1609.3,756.9,1609.3,765.7z"/>
		<path class="st0" d="M1904.2,765.7L1904.2,765.7c0,20-8.1,37.5-24.4,52.7c-16.1,15-34.4,22.5-55,22.5l0,0
			c-6.7,0-11.1-1.5-13.2-4.6c-2.2-3.3-3.3-7.4-3.3-12.5s0.6-10.1,1.9-14.9l0,0c-10.8,3.6-22.9,9.1-36.2,16.7
			c-13.3,7.6-29.6,18.7-49,33.4c-19.3,14.9-29,25.9-29,33.2l0,0c0,2.5,3.6,3.7,10.7,3.7c7.1,0,18.1-2.6,33-7.7
			c14.7-5,25-7.4,30.9-7.4c5.9,0,9.8,0.3,11.6,0.9l0,0c4,2.2,8.3,6.8,12.8,13.9s6.7,12.7,6.7,16.7s-3.9,9.4-11.8,16
			c-7.7,6.7-16.6,11.8-26.7,15.3c-9.9,3.4-16.6,6-20,7.9l0,0c-63.8,35.6-95.6,60-95.6,73.4l0,0c0,23.7,20.1,35.5,60.4,35.5l0,0
			c25.7,0,51.5-8.2,77.5-24.6l0,0c22-13.9,41.9-28,59.7-42.3c17.6-14.4,28.8-23.3,33.4-26.7c4.6-3.3,8.2-4.9,10.7-4.9l0,0
			c7.9,0,11.8,8.7,11.8,26.2s-1.1,29-3.3,34.6c-2,5.7-8,12.6-18.1,20.7l0,0c-64.7,52.6-125.9,78.9-183.6,78.9l0,0
			c-30.8,0-55.4-4.3-73.8-12.8l0,0c-33.9-15.3-50.8-38.8-50.8-70.6l0,0c0-41.8,28.9-73.4,86.6-94.7l0,0
			c-11.5-5.3-18.9-11.8-22.3-19.7c-3.3-8-4.9-20.9-4.9-38.5c0-17.8,8.2-36.6,24.6-56.4c16.6-19.8,36.8-36.1,60.6-48.8l0,0
			c53.2-28.6,100.7-42.9,142.3-42.9l0,0c10.1,0,20.2,2.4,30.4,7.2C1899,750.1,1904.2,756.9,1904.2,765.7z"/>
		<path class="st0" d="M2123.6,1035L2123.6,1035c0,13.3,9.1,20,27.2,20l0,0c9.8,0,21.9-4.8,36.4-14.4c14.7-9.8,27.9-20.4,39.7-31.8
			l0,0c31.4-31.1,49.3-46.7,53.6-46.7l0,0c7.7,0,11.6,11.3,11.6,33.9c0,22.8-7,38.3-21.1,46.7l0,0c-43.3,39-76.8,62.8-100.3,71.3
			l0,0c-13.3,4.5-27.9,6.6-43.9,6.3c-16.1-0.3-32-7.2-47.8-20.7c-15.6-13.6-23.4-30.2-23.4-49.7s5.1-41.6,15.3-66.4
			c10.4-24.9,20.9-46.2,31.6-63.8c10.7-17.6,23.9-38.1,39.7-61.5c15.6-23.5,23.9-38.2,24.8-43.9l0,0l-0.9-0.9
			c-9.9,0.9-34.6,20.6-74.1,59s-72,71.8-97.7,100.3c-25.7,28.3-56.3,66.2-91.9,113.8l0,0c-10.1,13-18.3,19.5-24.6,19.5
			c-6.3,0-14.9-2-25.5-6c-10.7-4.2-17.3-7.2-19.7-9.1c-2.5-1.7-3.7-4.4-3.7-8.1c0-3.6,1.1-8,3.3-13.2c2.2-5.4,4.2-9.8,6-13.2
			c2-3.4,5.3-8.7,9.8-16c4.6-7.3,13.7-22.7,27.2-46.2c13.3-23.4,33.9-58.3,61.8-104.9c27.9-46.4,44.5-74.5,49.9-84.3l0,0
			c11.5-20,20.8-34.4,28.1-43.4l0,0c13.6-17.3,36.6-26,68.9-26l0,0c7.3,0,10.9,4.6,10.9,13.7l0,0c0,14.2-13.2,40.9-39.5,80.1l0,0
			l-19,28.8c52.3-58,96.4-94.8,132.3-110.3l0,0c17.5-7.6,33.3-11.4,47.4-11.4s25.3,3.8,33.7,11.4c8.4,7.6,12.5,15.9,12.5,25.1
			c0,9.3-3.2,20.4-9.5,33.2c-6.3,12.8-12.8,24.3-19.3,34.4c-6.5,10.2-15.1,23-25.8,38.3c-10.5,15.5-16.3,23.9-17.2,25.3
			c-0.9,1.4-3.3,5-7,10.9c-3.9,5.9-6.7,10.1-8.4,12.8c-1.9,2.8-5,7.6-9.3,14.4c-4.2,6.8-7.5,12.5-10,16.9
			c-2.6,4.5-5.8,10.1-9.5,16.7c-3.9,6.7-7,12.5-9.3,17.4c-2.2,4.8-4.5,10.1-7,15.8l0,0C2125.7,1019.3,2123.6,1028.1,2123.6,1035z"/>
		<path class="st0" d="M6752.6,1704.1"/>
		<path class="st0" d="M2675.9,661.5L2675.9,661.5c0,19.7,34.3,29.5,102.8,29.5l0,0c16.9,0,29.4-1.9,37.6-5.6l0,0
			c21.5-10.2,47.9-15.3,79.2-15.3c31.3,0,46.9,8,46.9,23.9l0,0c0,6.3-2.6,15.7-7.9,28.1c-5.3,12.2-9.2,19.7-11.8,22.3
			c-2.5,2.8-12.2,6.5-29.3,11.1c-16.9,4.6-27.8,7.2-32.7,7.7c-5.1,0.5-8.4,0.9-10,1.2c-1.7,0.3-3.7,0.6-6,0.9
			c-2.2,0.3-7.2,1.2-15.1,2.6s-13.6,1.3-17.2-0.2l0,0c-100.1,49.2-168.9,103.3-206.4,162.3l0,0c-16.9,26.6-25.3,49.4-25.3,68.5l0,0
			c0,29.9,20.7,44.8,62,44.8l0,0c32.3,0,73.4-12.7,123.3-38.1c50-25.4,94.3-56.1,132.8-92.2c38.5-36.2,57.8-67.6,57.8-94l0,0
			c0-8.5,6.3-12.8,19-12.8l0,0c29.3,0,43.9,17.3,43.9,52l0,0c0,16.4-7.1,35.8-21.4,58.3c-14.1,22.6-33.8,45.4-59.2,68.5
			c-25.5,23.2-53.9,44.8-85,64.8c-31.1,20-65.6,36.3-103.5,49c-37.9,12.7-70,19-96.3,19c-26.3,0-47.5-2.6-63.6-7.7
			c-16.3-5-31.5-12.4-45.7-22.3l0,0c-30.8-21.5-46.2-54-46.2-97.5l0,0c0-23.5,6.3-47.5,19-72c12.7-24.3,29.3-46.4,49.9-66.4l0,0
			c37.8-37.5,78.2-68.6,121.4-93.3l0,0c-62.2-14.2-93.3-46.3-93.3-96.1l0,0c0-56.3,43.3-107.7,129.8-154.1l0,0
			c48-25.7,100.1-44.2,156.2-55.5l0,0c26.6-5.4,48.9-8.1,66.9-8.1l0,0c36.2,0,63.5,2.9,82,8.6l0,0c11.1,5.6,20.2,13.2,27.2,23
			c7,9.8,10.4,18.2,10.4,25.3c0,7.1-0.9,13.5-2.8,19.3c-1.7,5.7-4.7,10.3-9.1,13.7l0,0c-6,4.5-12.8,8-20.2,10.4
			c-7.6,2.5-12,3.9-13.2,4.4l0,0c-23.5,10.1-43.8,15.1-60.8,15.1l0,0c-30.2,0-46.7-3.9-49.4-11.8l0,0c0.6-7.9,3.9-16.9,10-27.2l0,0
			c-28.6,1.2-58.4,7-89.4,17.4c-30.8,10.4-57.4,22.6-79.9,36.7c-22.6,14.1-41.2,28.7-55.7,43.9
			C2683.1,638.4,2675.9,651.1,2675.9,661.5z"/>
		<path class="st0" d="M2975.6,958.9L2975.6,958.9l-3.7-12.8c0-2.3,1.2-4.3,3.7-6c2.3-1.7,5.4-5.1,9.3-10.2c3.7-5.1,6.4-8.4,8.1-10
			s4.1-3.7,7.2-6.5c3.3-2.9,5.9-5.3,7.9-7l0,0c6-5.3,10.3-8.3,12.8-9.1c2.5-0.6,6.7-1.9,12.8-3.7l0,0c18.7-6,34.6-10.3,47.6-12.8
			l0,0c77.1-128.8,139-229.5,185.7-302.3c46.6-72.6,73.1-112.7,79.6-120.5c6.5-7.7,18.1-14.6,34.8-20.7c16.6-6,28.7-9,36.4-8.8
			c7.7,0.2,11.6,3.6,11.6,10.2l0,0c0,2.6-1,6.3-3,10.9c-2,4.5-18.6,31.2-49.7,80.1l0,0c-115.1,180.5-188.9,297.5-221.2,351l0,0
			l11.4,4.2c70.1-13,106.6-19.5,109.6-19.5c2.8,0,10,2,21.6,6c11.8,4,19.4,6.3,23,7l0,0c7,1.2,10.4,7,10.4,17.2
			c0,10.1-3.2,15.7-9.5,16.9l0,0c-5.1,0.9-17.4,3.9-36.9,8.8c-19.5,5-35.1,8.8-46.9,11.6l0,0c15.9,19,23.9,39.2,23.9,60.6
			c0,21.5-9.5,49.9-28.6,85.2c-19,35.1-43.3,70-72.9,104.5c-29.7,34.5-60.8,67-93.3,97.5c-32.5,30.5-63.7,55.2-93.6,74.1
			c-29.9,18.9-52,28.3-66.4,28.3s-27.2-3.9-38.5-11.6c-11.3-7.6-16.9-19-16.9-34.1c0-15.2,3.1-32.8,9.3-52.9
			c6.2-20,12.9-38.4,20.2-55.3c7.1-16.7,19.5-40.8,37.1-72.2l0,0c18.7-33.9,52.5-91.8,101.5-173.6l0,0c-8.5,1.4-15,2.1-19.5,2.1
			c-4.5,0-8.7-1-12.8-3c-3.9-2.2-6.6-5-8.1-8.4l0,0C2976.9,968.2,2975.6,963.1,2975.6,958.9z M3103.3,1154.4
			c22.4-26.3,41.4-53.9,56.9-82.9c15.3-28.8,23-52.3,23-70.6c0-18.3-8.9-34.4-26.7-48.3l0,0l-50.4,11.4c-5.1,8.4-13,21.7-23.7,39.9
			c-10.8,18.4-19.7,33.4-26.5,44.8c-6.8,11.5-15.5,26.2-26,44.3c-10.5,18.1-19.3,33.4-26.5,45.7c-7.1,12.5-15,26.5-23.7,42
			c-8.5,15.6-15.6,28.9-21.1,39.9c-5.7,11-11.1,22-16.3,33l0,0c-9.9,21-14.9,34.7-14.9,41.1c0,6.3,1.6,9.5,4.9,9.5l0,0
			c6,0,18.5-6.8,37.4-20.4c18.9-13.8,40.2-32.3,64.1-55.5C3057.5,1205.3,3080.7,1180.7,3103.3,1154.4z"/>
		<path class="st0" d="M3309.7,958.9L3309.7,958.9l-3.5-12.8c0-2.3,1.2-4.3,3.5-6c2.5-1.7,5.6-5.1,9.3-10.2c3.9-5.1,6.6-8.4,8.1-10
			c1.7-1.5,4.2-3.7,7.4-6.5c3.1-2.9,5.7-5.3,7.9-7l0,0c6-5.3,10.3-8.3,12.8-9.1c2.3-0.6,6.5-1.9,12.5-3.7l0,0
			c18.7-6,34.6-10.3,47.6-12.8l0,0c77.1-128.8,139-229.5,185.7-302.3c46.7-72.6,73.4-112.7,79.9-120.5c6.5-7.7,18-14.6,34.6-20.7
			c16.7-6,28.9-9,36.4-8.8c7.7,0.2,11.6,3.6,11.6,10.2l0,0c0,2.6-0.9,6.3-2.8,10.9c-2,4.5-18.6,31.2-49.7,80.1l0,0
			c-115.1,180.5-188.9,297.5-221.2,351l0,0l11.1,4.2c70.3-13,106.8-19.5,109.6-19.5c2.9,0,10.2,2,21.8,6c11.6,4,19.2,6.3,22.8,7l0,0
			c7,1.2,10.4,7,10.4,17.2c0,10.1-3.2,15.7-9.5,16.9l0,0c-5.1,0.9-17.4,3.9-36.9,8.8c-19.5,5-35.1,8.8-46.9,11.6l0,0
			c16.1,19,24.1,39.2,24.1,60.6c0,21.5-9.5,49.9-28.6,85.2c-19.2,35.1-43.6,70-73.1,104.5s-60.6,67-93.1,97.5
			c-32.5,30.5-63.8,55.2-93.8,74.1c-29.9,18.9-52,28.3-66.4,28.3c-14.4,0-27.2-3.9-38.5-11.6c-11.3-7.6-16.9-19-16.9-34.1
			s3.1-32.8,9.3-52.9c6.2-20,12.9-38.4,20.2-55.3c7.3-16.7,19.7-40.8,37.1-72.2l0,0c18.7-33.9,52.6-91.8,101.7-173.6l0,0
			c-8.5,1.4-15,2.1-19.5,2.1c-4.6,0-8.9-1-12.8-3c-3.9-2.2-6.6-5-8.1-8.4l0,0C3311,968.2,3309.7,963.1,3309.7,958.9z M3437.3,1154.4
			c22.6-26.3,41.6-53.9,56.9-82.9c15.5-28.8,23.2-52.3,23.2-70.6s-8.9-34.4-26.7-48.3l0,0l-50.4,11.4c-5.1,8.4-13.1,21.7-23.9,39.9
			c-10.7,18.4-19.4,33.4-26.2,44.8c-6.8,11.5-15.5,26.2-26,44.3c-10.7,18.1-19.6,33.4-26.7,45.7c-7.1,12.5-14.9,26.5-23.4,42
			c-8.7,15.6-15.8,28.9-21.4,39.9s-10.9,22-16,33l0,0c-10.1,21-15.1,34.7-15.1,41.1s1.7,9.5,5.1,9.5l0,0c6,0,18.5-6.8,37.4-20.4
			c18.9-13.8,40.2-32.3,63.8-55.5C3391.8,1205.3,3414.9,1180.7,3437.3,1154.4z"/>
		<path class="st0" d="M3977.1,759.5c9.1,0,18.4,4,27.9,12.1c9.6,8.2,14.4,20.7,14.4,37.6c0,16.7-5.9,38.5-17.6,65.2
			c-11.8,26.8-27.9,53.9-48.5,81.5c-20.6,27.7-43.2,53.7-67.8,78c-24.6,24.5-51.2,44.4-79.9,59.9c-28.6,15.6-54.6,23.4-77.8,23.4
			s-41.9-7.4-55.9-22.1c-14.1-14.7-21.1-35.1-21.1-61.3c0-26.2,6.4-55.1,19.3-86.8c12.8-31.7,29.4-59.7,49.7-84
			c20.3-24.3,42.2-46.1,65.7-65.5l0,0c49.2-39.6,92.5-59.4,129.8-59.4l0,0c16.6,0,29.1,4.1,37.6,12.3l0,0c2.9,2.6,4.4,5,4.4,7.2l0,0
			v2.8C3961.5,759.8,3968.1,759.5,3977.1,759.5z M3931.4,819.6L3931.4,819.6h-3.3c-10.5,0-15.8-7.7-15.8-23l0,0
			c-22.1,7.3-45.3,20-69.4,38.1c-24.1,18.1-45.7,39.5-64.8,64.3l0,0c-38.7,49.7-58.3,91.5-59,125.6l0,0c0,17,6.2,25.5,18.6,25.5
			c12.4,0,30.8-8.2,55.3-24.6c24.5-16.3,48.8-39.5,72.9-69.9c24-30.2,41.9-56.3,53.9-78.5c11.9-22.3,17.9-37.5,17.9-45.5
			C3937.6,823.6,3935.5,819.6,3931.4,819.6z"/>
		<path class="st0" d="M4176.8,829.1l-19,28.8c71.2-81.1,131.9-121.6,182.2-121.6l0,0c12.4,0,22.6,3.7,30.6,11.1
			c7.9,7.4,11.8,17,11.8,28.8c0,11.8-8.4,31.5-25.1,59.2c-16.7,27.7-32.2,51.1-46.4,70.1l0,0c-7.6,9.6-16.2,14.4-25.8,14.4
			c-9.4,0-16.8-3.5-22.1-10.4c-5.4-7-8.1-15.1-8.1-24.4l0,0c0-20.9,11.2-44.5,33.7-70.8l0,0l-0.9-0.9c-9.9,0.9-34.6,20.6-74.1,59
			c-39.5,38.4-73.1,72.7-100.8,103.1c-27.7,30.5-57.7,67.5-90.1,111l0,0c-9.3,13-17.2,19.5-23.7,19.5s-15.1-2-25.8-6
			c-10.8-4.2-17.3-7.2-19.5-9.1c-2.3-1.7-3.5-4.7-3.5-9.1c0-4.2,1.2-9.1,3.7-14.6c2.3-5.6,6.7-13.5,13.2-23.9
			c6.5-10.2,16.3-26.8,29.5-49.7c13.2-23.1,33.7-57.9,61.5-104.5c27.9-46.4,44.5-74.5,49.9-84.3l0,0c11.5-20,20.8-34.4,28.1-43.4
			l0,0c13.6-17.3,36.6-26,69-26l0,0c7.3,0,10.9,4.6,10.9,13.7l0,0C4216.2,763.3,4203.1,790,4176.8,829.1L4176.8,829.1z"/>
		<path class="st0" d="M4624.1,523.6l21.4-2.8l18.6,4.6c2.8,0,5.2,1.3,7.2,3.9c2.2,2.8,3.2,5.4,3.2,7.9c0,2.3-3.2,8.8-9.5,19.5
			c-6.3,10.5-13.9,22.5-22.5,36c-8.5,13.5-13.1,20.8-13.7,22.1l0,0c23.5-1.9,40.2-2.8,50.1-2.8c9.8,0,16.5,0.7,20.2,2.1
			c3.6,1.4,7.7,5.2,12.3,11.4c4.8,6.2,9.1,10.8,13,13.9c3.9,3.3,5.8,8,5.8,14.4s-3.8,11.7-11.4,16c-7.7,4.3-16,7-24.8,7.9l0,0
			c-70.1,7-108.8,10.6-116.1,10.9l0,0c-24.5,37.5-58.7,95.9-102.6,175.3c-44,79.4-67.3,129.1-70.1,149l0,0c-1.2,9-1.9,16.3-1.9,22.1
			l0,0c0,11.8,6.2,17.6,18.6,17.6c12.4,0,26.2-4.7,41.3-14.2c15.2-9.6,29.1-20,41.8-31.1l0,0c33.7-30.2,51.8-45.3,54.3-45.3l0,0
			c7.9,0,11.8,13.6,11.8,40.9l0,0c0,14.7-6.8,27.9-20.4,39.7l0,0c-30.5,26.3-56.2,46.1-77.1,59.4c-20.9,13.3-41.8,20-62.7,20l0,0
			c-4.5,0-8.7-0.5-12.5-1.4l0,0c-24.3-4.5-42.1-13.3-53.4-26.5c-11.3-13.2-16.9-30.9-16.7-53.2c0.2-22.4,6.8-49.6,20-81.5
			c13.2-31.9,29.7-65.8,49.7-101.7l0,0c32.7-58.7,65.3-113.7,98-165.1l0,0l-17.4,2.1c-35,4-55.3,6-61.1,6l0,0h-4.2
			c-8.8,0-17.3-1.8-25.3-5.3c-8.2-3.4-12.3-7.7-12.3-12.8c0-5.3,2.2-10.3,6.5-15.1c4.5-4.8,7.2-8.6,8.1-11.4l0,0
			c2-6.7,9.9-14,23.7-22.1c13.8-8.2,24.1-12.5,31.1-13c7-0.5,13.7-0.9,20.2-1.2c6.5-0.3,13.7-0.6,21.6-0.9c8-0.3,14.2-0.6,18.6-0.9
			l0,0l40.6-1.9c25.4-38.1,42.9-62.5,52.5-73.4c9.4-10.8,14.9-16.8,16.5-17.9C4616.6,524.1,4619.6,523.6,4624.1,523.6L4624.1,523.6z
			"/>
		<path class="st0" d="M4583,1014.1L4583,1014.1l-0.5,7.4c0,7.4,2.9,13.9,8.6,19.5c5.7,5.4,11,8.1,15.8,8.1l0,0
			c36.2,0,68.3-5.5,96.3-16.5c28-10.8,42-21.7,42-32.5l0,0c0-5.1-5.1-9.6-15.3-13.5c-10.1-3.7-27.1-8.4-51.1-13.9
			c-24.1-5.6-41.6-10-52.5-13.2c-10.8-3.1-19.4-6-25.8-8.8c-6.3-2.8-12.8-6.6-19.5-11.4l0,0c-14.2-9.9-21.4-24.8-21.4-44.6
			s7.4-39.5,22.1-59c14.5-19.5,32.9-36.2,55-50.1c22.1-13.9,45.9-26.2,71.3-36.7l0,0c50.1-20.9,92.3-31.3,126.5-31.3l0,0
			c33.4,0,54.1,7.3,62,21.8l0,0c2.5,5.1,3.7,10.8,3.7,17.2l0,0v3.3c0,15.9-3.4,28.5-10.2,37.6c-6.8,9-17.6,17.1-32.3,24.4
			c-14.7,7.3-26.3,10.9-34.8,10.9c-8.7,0-14.2-0.6-16.5-1.9c-2.2-1.2-4-2.8-5.6-4.6c-1.5-2-3.4-3.5-5.6-4.4
			c-2.3-0.9-3.5-3.2-3.5-6.7c0-3.6,1.5-7.3,4.6-11.1c2.9-3.7,5-7.7,6.3-12.1l0,0c-20,0.9-40.9,5.6-62.7,13.9
			c-21.7,8.4-40.3,17.6-55.9,27.9c-15.5,10.2-28.4,20-38.8,29.5c-10.2,9.4-15.3,16.3-15.3,20.7c0,4.3,7,7.9,20.9,10.7l0,0
			c62.5,12.4,103.6,23.1,123.3,32c19.7,9.1,33.3,19.4,40.9,30.9c7.4,11.5,11.1,21.9,11.1,31.3l0,0c0,19.3-7.7,37.6-23,54.8
			c-15.5,17.3-34.5,31.4-57.1,42.3l0,0c-48.8,23.8-91.2,35.8-127.2,35.8c-36.2,0-61.1-5.5-74.8-16.5c-13.8-11-20.7-24.1-20.7-39.2
			c0-15.2,3.9-29.2,11.6-42c7.6-12.8,17.4-19.3,29.5-19.3C4576.9,1004.6,4583,1007.8,4583,1014.1z"/>
	</g>
</g>
</svg>
